<svg width="573" height="424" viewBox="0 0 573 424" fill="none" xmlns="http://www.w3.org/2000/svg">
<path d="M202.273 301.171C202.129 301.244 102.361 243.572 102.361 243.572V207.635L202.273 265.235" fill="#8AEEFE"/>
<path d="M202.273 301.171C202.129 301.244 102.361 243.572 102.361 243.572V207.635L202.273 265.235" stroke="#1C36F5" stroke-miterlimit="10"/>
<path d="M102.506 60.701L91.1312 67.3666L78.5244 60.1213C78.4519 60.1213 78.4519 60.0489 78.5244 59.9764L89.9719 53.3108L102.506 60.701Z" fill="white" stroke="#1C36F5" stroke-miterlimit="10"/>
<path d="M78.5243 60.2663C78.5243 62.0051 78.4518 75.5538 78.5243 75.5538C78.5243 75.5538 89.9718 82.147 91.0586 82.7991C91.0586 82.7991 91.1311 82.7991 91.1311 82.7266V67.3666L78.7417 60.1938C78.5968 60.1214 78.5243 60.1938 78.5243 60.2663Z" fill="#8AEEFE" stroke="#1C36F5" stroke-miterlimit="10"/>
<path d="M91.2035 82.7991L102.506 76.2059V60.846C102.506 60.7735 102.434 60.7735 102.361 60.7735L91.1311 67.3667V82.7267C91.0587 82.7991 91.131 82.7991 91.2035 82.7991Z" fill="#1C36F5"/>
<path d="M317.184 198.216L202.274 265.235C202.129 265.307 102.361 207.635 102.361 207.635C101.999 207.418 101.999 206.91 102.361 206.621C102.361 206.621 217.706 139.529 217.851 139.602C217.851 139.602 317.618 197.926 317.184 198.216Z" fill="#1C36F5"/>
<path d="M202.273 301.099V265.162L316.821 198.361C316.966 198.289 317.183 198.361 317.183 198.578V234.08L202.273 301.099Z" fill="white" stroke="#1C36F5" stroke-miterlimit="10"/>
<path d="M317.183 215.532L202.273 282.551C202.129 282.623 102.361 224.951 102.361 224.951" stroke="#1C36F5" stroke-width="0.75" stroke-miterlimit="10"/>
<path d="M149.818 8.89734L66.4248 57.3682C66.3523 57.3682 66.3523 57.3682 66.2799 57.3682L53.021 49.6882C52.9486 49.6157 52.9486 49.4708 53.021 49.4708L136.414 1C136.487 1 136.487 1 136.559 1L149.818 8.67998C149.89 8.67998 149.89 8.82489 149.818 8.89734Z" fill="white" stroke="#1C36F5" stroke-miterlimit="10"/>
<path d="M66.135 168.8L52.8036 161.048V49.7606C52.8036 49.6881 52.9485 49.6157 53.021 49.6157L66.3524 57.3681V168.655C66.3524 168.8 66.2799 168.8 66.135 168.8Z" fill="#8AEEFE" stroke="#1C36F5" stroke-miterlimit="10"/>
<path d="M135.69 91.0586C128.879 115.91 105.911 136.124 91.6383 132.212C77.3651 128.299 74.2496 105.042 81.0601 80.1907C87.8707 55.3395 111.853 37.8059 126.053 41.7184C140.254 45.6308 142.5 66.2074 135.69 91.0586Z" stroke="#1C36F5" stroke-width="0.75" stroke-miterlimit="10"/>
<path d="M149.745 8.96977L66.4248 57.3681C66.3524 57.3681 66.3525 57.4406 66.3525 57.5131V168.583C66.3525 168.728 66.4973 168.8 66.6422 168.728L149.963 120.33C150.035 120.33 150.035 120.257 150.035 120.185V9.11467C150.035 8.96977 149.89 8.89732 149.745 8.96977ZM135.69 91.0586C128.879 115.91 105.912 136.124 91.6384 132.212C77.4377 128.299 74.2497 105.042 81.0602 80.1907C86.1319 61.6429 100.767 47.2248 113.809 42.6603C118.229 41.1388 122.503 40.704 126.126 41.7184C140.327 45.6308 142.5 66.2074 135.69 91.0586Z" fill="#1C36F5"/>
<path d="M88.3779 130.835C101.13 125.546 115.185 109.607 120.257 91.0587C126.56 67.9463 125.112 48.5289 113.447 42.8052" stroke="#1C36F5" stroke-width="0.75" stroke-miterlimit="10"/>
<path d="M126.126 41.7184C122.503 40.7041 118.301 41.1388 113.809 42.6603C113.664 42.7328 113.592 42.7328 113.447 42.8052C125.111 48.529 126.56 67.9463 120.257 91.0587C115.185 109.607 101.057 125.546 88.3779 130.835C89.3923 131.415 90.4791 131.922 91.7108 132.212C105.912 136.124 128.879 115.91 135.762 91.0587C142.5 66.2074 140.327 45.6309 126.126 41.7184Z" fill="white" stroke="#1C36F5" stroke-miterlimit="10"/>
<path d="M160.831 77.0753L137.936 90.4066C137.863 90.4066 112.65 75.8436 112.65 75.8436C112.577 75.7712 112.577 75.6263 112.65 75.6263C112.65 75.6263 135.617 62.2225 135.69 62.295C135.69 62.2225 160.903 77.0029 160.831 77.0753Z" fill="white" stroke="#1C36F5" stroke-miterlimit="10"/>
<path d="M112.65 75.8437C112.65 75.8437 112.577 106.926 112.65 106.998C112.65 106.998 135.689 120.33 137.791 121.489C137.863 121.561 137.935 121.489 137.935 121.416V90.4067L112.65 75.8437Z" fill="#8AEEFE" stroke="#1C36F5" stroke-miterlimit="10"/>
<path d="M151.194 423.109C151.049 423.182 86.5667 385.869 86.5667 385.869V336.166L151.194 373.407" fill="#8AEEFE"/>
<path d="M151.194 423.109C151.049 423.182 86.5667 385.869 86.5667 385.869V336.166L151.194 373.407" stroke="#1C36F5" stroke-miterlimit="10"/>
<path d="M138.153 121.416L160.831 108.158V77.0029L137.935 90.3342V121.271C137.935 121.416 138.08 121.489 138.153 121.416Z" fill="#1C36F5"/>
<path d="M151.194 422.964V373.334L225.241 330.152C225.386 330.08 225.531 330.152 225.531 330.297V379.71L151.267 423.037C151.195 423.037 151.194 423.037 151.194 422.964Z" fill="#495EF7" stroke="#1C36F5" stroke-miterlimit="10"/>
<path d="M109.534 105.477L98.1591 112.142L85.5524 104.897C85.48 104.897 85.48 104.825 85.5524 104.752L96.9998 98.0865C96.9998 98.0865 109.607 105.404 109.534 105.477Z" fill="white" stroke="#1C36F5" stroke-miterlimit="10"/>
<path d="M85.5523 105.042C85.5523 106.781 85.4799 120.33 85.5523 120.33C85.5523 120.33 96.9997 126.923 98.0865 127.575C98.0865 127.575 98.159 127.575 98.159 127.502V112.142L85.7696 104.97C85.6971 104.897 85.5523 104.97 85.5523 105.042Z" fill="#8AEEFE" stroke="#1C36F5" stroke-miterlimit="10"/>
<path d="M98.2316 127.502L109.534 120.909V105.549C109.534 105.477 109.462 105.477 109.389 105.477L98.1591 112.07V127.43C98.1591 127.502 98.2316 127.575 98.2316 127.502Z" fill="#1C36F5"/>
<path d="M225.531 330.008L151.194 373.334C151.049 373.407 86.5666 336.094 86.5666 336.094C86.3492 335.949 86.3492 335.586 86.5666 335.442C86.5666 335.442 161.193 292.042 161.265 292.115C161.265 292.115 225.748 329.863 225.531 330.008Z" fill="#1C36F5"/>
<path d="M225.531 356.96L151.194 400.287C151.049 400.359 86.5667 363.046 86.5667 363.046" stroke="#1C36F5" stroke-width="0.75" stroke-miterlimit="10"/>
<path d="M204.302 324.067V325.371C204.302 326.82 203.505 328.196 202.273 328.921C193.072 334.21 156.049 355.801 146.34 361.38C144.384 362.539 141.993 362.539 140.109 361.38C133.154 357.322 111.925 345.005 105.187 341.093C103.883 340.368 103.158 338.992 103.158 337.543V336.311L153.151 326.747L204.012 323.632C204.157 323.704 204.302 323.849 204.302 324.067Z" fill="#8AEEFE" stroke="#1C36F5" stroke-miterlimit="10"/>
<path d="M146.34 358.336C157.353 351.888 194.449 330.37 203.578 325.081C204.52 324.574 204.52 323.197 203.578 322.69C197.057 318.85 176.698 307.04 168.293 302.186C165.975 300.881 163.149 300.881 160.903 302.186C148.948 309.069 111.563 330.877 103.593 335.441C102.941 335.804 102.941 336.746 103.593 337.18C109.534 340.586 131.777 353.555 140.037 358.336C141.993 359.423 144.384 359.423 146.34 358.336Z" fill="white" stroke="#1C36F5" stroke-miterlimit="10"/>
<path d="M337.543 317.98L305.953 336.383C305.881 336.383 278.494 320.516 278.494 320.516C278.421 320.444 278.421 320.299 278.494 320.226C278.494 320.226 310.228 301.751 310.3 301.823C310.156 301.823 337.615 317.908 337.543 317.98Z" fill="#1C36F5"/>
<path d="M112.867 336.456C120.402 332.109 154.527 312.184 165.975 305.591C166.12 305.519 166.12 305.374 165.975 305.301C165.395 304.939 164.163 304.287 163.656 303.925C163.584 303.925 163.511 303.925 163.511 303.925C152.354 310.373 118.301 330.152 110.403 334.789C110.259 334.862 110.259 335.007 110.403 335.079C111.056 335.441 112.287 336.166 112.722 336.456C112.722 336.528 112.795 336.528 112.867 336.456Z" stroke="#1C36F5" stroke-width="0.75" stroke-miterlimit="10"/>
<path d="M116.635 338.629C124.17 334.282 158.295 314.358 169.742 307.764C169.887 307.692 169.887 307.547 169.742 307.475C169.163 307.112 167.931 306.46 167.424 306.098C167.352 306.098 167.279 306.098 167.279 306.098C156.121 312.546 122.069 332.326 114.171 336.963C114.026 337.035 114.026 337.18 114.171 337.253C114.823 337.615 116.055 338.339 116.49 338.629C116.49 338.702 116.562 338.702 116.635 338.629Z" stroke="#1C36F5" stroke-width="0.75" stroke-miterlimit="10"/>
<path d="M120.257 340.948C127.792 336.601 161.917 316.676 173.365 310.083C173.51 310.011 173.51 309.866 173.365 309.793C172.785 309.431 171.554 308.779 171.047 308.417C170.974 308.417 170.902 308.417 170.902 308.417C159.744 314.865 125.691 334.645 117.794 339.282C117.649 339.354 117.649 339.499 117.794 339.571C118.446 339.934 119.678 340.658 120.112 340.948C120.185 340.948 120.257 340.948 120.257 340.948Z" stroke="#1C36F5" stroke-width="0.75" stroke-miterlimit="10"/>
<path d="M313.054 308.634L318.488 311.749L310.88 316.169L305.446 313.054L313.054 308.634ZM310.88 314.865L316.314 311.749L314.14 310.518L308.707 313.633L310.88 314.865Z" fill="white"/>
<path d="M322.835 314.285L315.3 318.633L313.126 317.401L318.488 314.285L317.401 313.633L318.488 312.981L319.574 313.633L320.661 312.981L322.835 314.285Z" fill="white"/>
<path d="M323.922 314.865L329.356 317.98L321.748 322.4L316.314 319.284L323.922 314.865ZM321.82 321.168L327.254 318.053L325.081 316.821L319.647 319.937L321.82 321.168Z" fill="white"/>
<path d="M311.967 307.982L304.359 312.402L302.186 311.097L307.62 307.982L306.533 307.33L307.62 306.75L308.707 307.33L309.793 306.75L311.967 307.982Z" fill="white"/>
<path d="M124.17 343.194C131.705 338.847 165.83 318.922 177.277 312.329C177.422 312.257 177.422 312.112 177.277 312.039C176.698 311.677 175.466 311.025 174.959 310.663C174.886 310.663 174.814 310.663 174.814 310.663C163.656 317.111 129.604 336.89 121.706 341.527C121.561 341.6 121.561 341.745 121.706 341.817C122.358 342.18 123.59 342.904 124.025 343.194C124.025 343.194 124.097 343.194 124.17 343.194Z" stroke="#1C36F5" stroke-width="0.75" stroke-miterlimit="10"/>
<path d="M127.937 345.512C135.472 341.165 169.597 321.241 181.045 314.648C181.19 314.575 181.19 314.43 181.045 314.358C180.465 313.996 179.234 313.343 178.727 312.981C178.654 312.981 178.582 312.981 178.582 312.981C167.424 319.429 133.371 339.209 125.474 343.846C125.329 343.918 125.329 344.063 125.474 344.136C126.126 344.498 127.358 345.223 127.792 345.512C127.792 345.512 127.865 345.512 127.937 345.512Z" stroke="#1C36F5" stroke-width="0.75" stroke-miterlimit="10"/>
<path d="M418.907 272.118C418.762 272.19 354.279 234.877 354.279 234.877V185.175L418.907 222.415" fill="#8AEEFE"/>
<path d="M418.907 272.118C418.762 272.19 354.279 234.877 354.279 234.877V185.175L418.907 222.415" stroke="#1C36F5" stroke-miterlimit="10"/>
<path d="M131.777 347.686C139.312 343.339 173.437 323.414 184.885 316.821C185.03 316.749 185.03 316.604 184.885 316.531C184.305 316.169 183.074 315.517 182.566 315.155C182.494 315.155 182.422 315.155 182.422 315.155C171.264 321.603 137.211 341.383 129.314 346.02C129.169 346.092 129.169 346.237 129.314 346.309C129.966 346.672 131.197 347.396 131.632 347.686C131.632 347.758 131.705 347.758 131.777 347.686Z" stroke="#1C36F5" stroke-width="0.75" stroke-miterlimit="10"/>
<path d="M135.545 350.004C143.08 345.657 140.327 347.179 151.702 340.586C151.847 340.513 151.847 340.368 151.702 340.296C151.122 339.934 149.89 339.281 149.383 338.919C149.311 338.919 149.238 338.919 149.238 338.919C138.081 345.367 140.979 343.701 133.081 348.338C132.936 348.41 132.936 348.555 133.081 348.628C133.733 348.99 134.965 349.715 135.4 350.004C135.4 350.077 135.472 350.077 135.545 350.004Z" stroke="#1C36F5" stroke-width="0.75" stroke-miterlimit="10"/>
<path d="M153.368 339.716C160.903 335.369 159.382 336.166 170.757 329.573C170.902 329.5 170.902 329.356 170.757 329.283C170.177 328.921 168.945 328.269 168.438 327.906C168.366 327.906 168.293 327.906 168.293 327.906C157.136 334.355 158.802 333.485 150.905 338.05C150.76 338.122 150.76 338.267 150.905 338.34C151.557 338.702 152.788 339.426 153.223 339.716C153.223 339.716 153.296 339.716 153.368 339.716Z" stroke="#1C36F5" stroke-width="0.75" stroke-miterlimit="10"/>
<path d="M172.423 328.703C179.958 324.356 177.205 325.878 188.58 319.285C188.725 319.212 188.725 319.067 188.58 318.995C188 318.632 186.769 317.98 186.262 317.618C186.189 317.618 186.117 317.618 186.117 317.618C174.959 324.066 177.857 322.4 169.96 327.037C169.815 327.109 169.815 327.254 169.96 327.327C170.612 327.689 171.843 328.414 172.278 328.703C172.278 328.703 172.351 328.703 172.423 328.703Z" stroke="#1C36F5" stroke-width="0.75" stroke-miterlimit="10"/>
<path d="M163.004 345.947C170.539 341.6 169.815 341.962 181.262 335.369C181.407 335.297 181.407 335.152 181.262 335.079C180.683 334.717 173.365 330.37 172.858 330.08C172.785 330.08 172.713 330.08 172.713 330.08C161.555 336.528 162.352 336.021 154.455 340.658C154.31 340.731 154.31 340.875 154.455 340.948C155.107 341.31 162.425 345.73 162.859 345.947C162.932 346.02 163.004 346.02 163.004 345.947Z" stroke="#1C36F5" stroke-width="0.75" stroke-miterlimit="10"/>
<path d="M162.497 252.338L161.41 251.686C160.106 250.962 158.585 250.962 157.28 251.686C148.079 256.975 111.056 278.566 101.347 284.145C99.3907 285.232 98.2316 287.333 98.2316 289.579C98.304 297.621 98.4489 322.183 98.5213 329.935C98.5213 331.384 99.3182 332.761 100.622 333.485L101.709 334.065L134.748 295.375L162.642 252.701C162.714 252.628 162.642 252.411 162.497 252.338Z" fill="#8AEEFE" stroke="#1C36F5" stroke-miterlimit="10"/>
<path d="M418.907 272.045V222.415L492.954 179.234C493.098 179.161 493.243 179.233 493.243 179.378V228.791L418.98 272.118L418.907 272.045Z" fill="#495EF7" stroke="#1C36F5" stroke-miterlimit="10"/>
<path d="M104.028 285.739C115.113 279.363 152.136 257.845 161.265 252.483C162.207 251.976 163.294 252.628 163.366 253.642C163.439 261.25 163.656 284.797 163.729 294.506C163.729 297.187 162.352 299.577 160.034 300.954C148.079 307.91 110.693 329.645 102.724 334.21C102.071 334.572 101.274 334.137 101.274 333.34C101.274 326.457 101.057 300.737 100.912 291.173C100.912 288.927 102.072 286.826 104.028 285.739Z" fill="white" stroke="#1C36F5" stroke-miterlimit="10"/>
<path d="M149.528 277.262L149.6 276.393L147.644 277.552C139.892 282.044 120.692 293.202 115.33 296.317V297.186C120.692 294.071 140.326 282.696 148.079 278.204L149.528 277.262Z" fill="#1C36F5"/>
<path d="M115.258 299.722V300.592C117.794 299.143 123.373 295.882 129.386 292.405V291.535C123.373 295.013 117.794 298.273 115.258 299.722Z" fill="#1C36F5"/>
<path d="M131.415 290.376V291.245C137.718 287.55 144.239 283.783 148.007 281.609L149.6 280.667L149.673 279.798L147.717 280.957C143.949 283.058 137.573 286.753 131.415 290.376Z" fill="#1C36F5"/>
<path d="M115.258 302.693V303.562C119.026 301.389 129.966 295.013 138.733 289.941V289.072C130.038 294.144 119.098 300.447 115.258 302.693Z" fill="#1C36F5"/>
<path d="M140.761 287.84V288.709C143.587 287.043 146.123 285.594 148.007 284.507L149.6 283.565L149.673 282.696L147.717 283.855C145.833 284.942 143.442 286.318 140.761 287.84Z" fill="#1C36F5"/>
<path d="M115.258 305.736V306.605C120.62 303.49 140.254 292.115 148.007 287.623L149.601 286.681L149.673 285.811L147.717 286.971C139.892 291.463 120.62 302.62 115.258 305.736Z" fill="#1C36F5"/>
<path d="M115.258 308.996V309.866C117.794 308.417 123.373 305.156 129.386 301.679V300.809C123.373 304.287 117.794 307.547 115.258 308.996Z" fill="#1C36F5"/>
<path d="M131.415 299.65V300.519C137.718 296.824 144.239 293.057 148.007 290.883L149.6 289.941L149.673 289.072L147.717 290.231C143.949 292.405 137.573 296.027 131.415 299.65Z" fill="#1C36F5"/>
<path d="M140.761 297.404V298.273C143.587 296.607 146.123 295.158 148.007 294.071L149.6 293.129L149.673 292.26L147.717 293.419C145.833 294.433 143.442 295.81 140.761 297.404Z" fill="#1C36F5"/>
<path d="M115.258 312.184V313.054C119.026 310.88 129.966 304.504 138.733 299.433V298.563C130.038 303.635 119.098 309.938 115.258 312.184Z" fill="#1C36F5"/>
<path d="M298.273 315.952L290.738 320.371L288.565 319.067L293.926 315.952L292.839 315.3L293.926 314.648L295.013 315.3L296.1 314.648L298.273 315.952Z" fill="white"/>
<path d="M299.36 316.604L304.794 319.719L297.186 324.139L291.752 321.024L299.36 316.604ZM297.259 322.835L302.693 319.719L300.519 318.488L295.085 321.603L297.259 322.835Z" fill="white"/>
<path d="M315.734 326.023L308.127 330.37L305.953 329.138L311.387 326.023L310.3 325.371L311.387 324.719L312.474 325.371L313.488 324.719L315.734 326.023Z" fill="white"/>
<path d="M305.881 320.372L311.315 323.487L303.707 327.907L298.273 324.791L305.881 320.372ZM303.78 326.603L309.214 323.487L307.04 322.255L301.606 325.371L303.78 326.603Z" fill="white"/>
<path d="M493.243 179.016L418.907 222.343C418.762 222.415 354.279 185.102 354.279 185.102C354.062 184.957 354.062 184.595 354.279 184.45C354.279 184.45 428.906 141.051 428.978 141.124C428.978 141.124 493.533 178.871 493.243 179.016Z" fill="#1C36F5"/>
<path d="M493.243 205.969L418.907 249.295C418.762 249.368 354.279 212.055 354.279 212.055" stroke="#1C36F5" stroke-width="0.75" stroke-miterlimit="10"/>
<path d="M472.015 173.075V174.379C472.015 175.828 471.218 177.205 469.986 177.929C460.785 183.218 423.761 204.809 414.053 210.388C412.096 211.547 409.705 211.547 407.822 210.388C400.866 206.331 379.638 194.014 372.9 190.101C371.595 189.377 370.871 188 370.871 186.551V185.32L420.863 175.756L471.725 172.64C471.87 172.785 472.015 172.93 472.015 173.075Z" fill="#8AEEFE" stroke="#1C36F5" stroke-miterlimit="10"/>
<path d="M414.053 207.345C425.065 200.897 462.161 179.378 471.29 174.089C472.232 173.582 472.232 172.206 471.29 171.698C464.77 167.858 444.41 156.049 436.006 151.194C433.687 149.89 430.862 149.89 428.616 151.194C416.661 158.077 379.275 179.886 371.306 184.45C370.654 184.812 370.654 185.754 371.306 186.189C377.247 189.594 399.49 202.563 407.749 207.345C409.706 208.504 412.096 208.504 414.053 207.345Z" fill="white" stroke="#1C36F5" stroke-miterlimit="10"/>
<path d="M380.58 185.537C388.115 181.19 422.24 161.265 433.687 154.672C433.832 154.6 433.832 154.455 433.687 154.382C433.108 154.02 431.876 153.368 431.369 153.006C431.296 153.006 431.224 153.006 431.224 153.006C420.066 159.454 386.013 179.233 378.116 183.87C377.971 183.943 377.971 184.088 378.116 184.16C378.768 184.523 380 185.247 380.435 185.537C380.507 185.537 380.58 185.537 380.58 185.537Z" stroke="#1C36F5" stroke-width="0.75" stroke-miterlimit="10"/>
<path d="M384.347 187.71C391.882 183.363 426.007 163.439 437.455 156.846C437.6 156.773 437.6 156.628 437.455 156.556C436.875 156.194 435.644 155.541 435.136 155.179C435.064 155.179 434.991 155.179 434.991 155.179C423.834 161.627 389.781 181.407 381.884 186.044C381.739 186.116 381.739 186.261 381.884 186.334C382.536 186.696 383.767 187.421 384.202 187.71C384.275 187.71 384.347 187.71 384.347 187.71Z" stroke="#1C36F5" stroke-width="0.75" stroke-miterlimit="10"/>
<path d="M388.042 189.957C395.577 185.609 429.703 165.685 441.15 159.092C441.295 159.019 441.295 158.874 441.15 158.802C440.57 158.44 439.339 157.788 438.832 157.425C438.759 157.425 438.687 157.425 438.687 157.425C427.529 163.874 393.476 183.653 385.579 188.29C385.434 188.363 385.434 188.507 385.579 188.58C386.231 188.942 387.463 189.667 387.897 189.957C387.897 190.029 387.97 190.029 388.042 189.957Z" stroke="#1C36F5" stroke-width="0.75" stroke-miterlimit="10"/>
<path d="M391.882 192.203C399.417 187.855 433.543 167.931 444.99 161.338C445.135 161.265 445.135 161.12 444.99 161.048C444.411 160.686 443.179 160.034 442.672 159.671C442.599 159.671 442.527 159.671 442.527 159.671C431.369 166.12 397.316 185.899 389.419 190.536C389.274 190.609 389.274 190.754 389.419 190.826C390.071 191.188 391.303 191.913 391.737 192.203C391.737 192.275 391.81 192.275 391.882 192.203Z" stroke="#1C36F5" stroke-width="0.75" stroke-miterlimit="10"/>
<path d="M395.65 194.521C403.185 190.174 437.31 170.249 448.758 163.656C448.903 163.584 448.903 163.439 448.758 163.366C448.178 163.004 446.946 162.352 446.439 161.99C446.367 161.99 446.294 161.99 446.294 161.99C435.137 168.438 401.084 188.218 393.186 192.855C393.042 192.927 393.042 193.072 393.186 193.145C393.839 193.507 395.07 194.231 395.505 194.521C395.505 194.594 395.577 194.594 395.65 194.521Z" stroke="#1C36F5" stroke-width="0.75" stroke-miterlimit="10"/>
<path d="M399.49 196.767C407.025 192.42 441.15 172.495 452.598 165.902C452.742 165.83 452.742 165.685 452.598 165.612C452.018 165.25 450.786 164.598 450.279 164.236C450.207 164.236 450.134 164.236 450.134 164.236C438.977 170.684 404.924 190.464 397.026 195.101C396.881 195.173 396.881 195.318 397.026 195.39C397.678 195.753 398.91 196.477 399.345 196.767C399.417 196.767 399.417 196.767 399.49 196.767Z" stroke="#1C36F5" stroke-width="0.75" stroke-miterlimit="10"/>
<path d="M403.257 199.086C410.792 194.738 408.039 196.26 419.414 189.667C419.559 189.594 419.559 189.449 419.414 189.377C418.834 189.015 417.603 188.363 417.096 188C417.023 188 416.951 188 416.951 188C405.793 194.449 408.691 192.782 400.794 197.419C400.649 197.492 400.649 197.637 400.794 197.709C401.446 198.071 402.677 198.796 403.112 199.086C403.112 199.086 403.185 199.086 403.257 199.086Z" stroke="#1C36F5" stroke-width="0.75" stroke-miterlimit="10"/>
<path d="M421.081 188.725C428.616 184.378 427.094 185.175 438.469 178.581C438.614 178.509 438.614 178.364 438.469 178.292C437.89 177.929 436.658 177.277 436.151 176.915C436.078 176.915 436.006 176.915 436.006 176.915C424.848 183.363 426.515 182.494 418.617 187.058C418.472 187.131 418.472 187.276 418.617 187.348C419.269 187.71 420.501 188.435 420.936 188.725C421.008 188.797 421.081 188.797 421.081 188.725Z" stroke="#1C36F5" stroke-width="0.75" stroke-miterlimit="10"/>
<path d="M440.136 177.712C447.671 173.365 444.918 174.886 456.293 168.293C456.438 168.221 456.438 168.076 456.293 168.003C455.713 167.641 454.481 166.989 453.974 166.627C453.902 166.627 453.829 166.627 453.829 166.627C442.671 173.075 445.57 171.409 437.672 176.046C437.527 176.118 437.527 176.263 437.672 176.335C438.324 176.698 439.556 177.422 439.991 177.712C439.991 177.785 440.063 177.785 440.136 177.712Z" stroke="#1C36F5" stroke-width="0.75" stroke-miterlimit="10"/>
<path d="M430.789 195.028C438.324 190.681 437.6 191.043 449.047 184.45C449.192 184.378 449.192 184.233 449.047 184.16C448.468 183.798 441.15 179.451 440.643 179.161C440.57 179.161 440.498 179.161 440.498 179.161C429.34 185.609 430.137 185.102 422.24 189.739C422.095 189.812 422.095 189.957 422.24 190.029C422.892 190.391 430.209 194.811 430.644 195.028C430.644 195.028 430.717 195.028 430.789 195.028Z" stroke="#1C36F5" stroke-width="0.75" stroke-miterlimit="10"/>
<path d="M430.282 101.347L429.195 100.695C427.891 99.9703 426.37 99.9703 425.066 100.695C415.864 105.984 378.841 127.575 369.132 133.154C367.176 134.24 366.017 136.342 366.017 138.588C366.089 146.63 366.234 171.191 366.307 178.944C366.307 180.393 367.103 181.769 368.408 182.494L369.494 183.074L402.533 144.384L430.427 101.709C430.5 101.709 430.427 101.492 430.282 101.347Z" fill="#8AEEFE" stroke="#1C36F5" stroke-miterlimit="10"/>
<path d="M371.74 134.748C382.826 128.372 419.849 106.853 428.978 101.492C429.92 100.985 431.007 101.637 431.079 102.651C431.152 110.259 431.369 133.806 431.441 143.514C431.441 146.195 430.065 148.586 427.746 149.963C415.792 156.918 378.406 178.654 370.436 183.219C369.784 183.581 368.987 183.146 368.987 182.349C368.987 175.466 368.77 149.745 368.625 140.182C368.625 137.936 369.857 135.907 371.74 134.748Z" fill="white" stroke="#1C36F5" stroke-miterlimit="10"/>
<path d="M417.313 126.343L417.386 125.474L415.429 126.633C407.677 131.125 388.477 142.283 383.115 145.398V146.268C388.477 143.152 408.112 131.777 415.864 127.285L417.313 126.343Z" fill="#1C36F5"/>
<path d="M382.971 148.804V149.673C385.506 148.224 391.085 144.964 397.099 141.486V140.616C391.158 144.094 385.506 147.282 382.971 148.804Z" fill="#1C36F5"/>
<path d="M399.127 139.385V140.254C405.431 136.559 411.952 132.791 415.719 130.618L417.313 129.676L417.386 128.807L415.429 129.966C411.662 132.139 405.358 135.834 399.127 139.385Z" fill="#1C36F5"/>
<path d="M382.971 151.702V152.571C386.738 150.397 397.678 144.022 406.445 138.95V138.081C397.751 143.152 386.883 149.456 382.971 151.702Z" fill="#1C36F5"/>
<path d="M408.474 136.921V137.791C411.3 136.124 413.835 134.675 415.719 133.588L417.313 132.647L417.386 131.777L415.429 132.936C413.545 133.951 411.155 135.327 408.474 136.921Z" fill="#1C36F5"/>
<path d="M382.971 154.817V155.687C388.332 152.571 407.967 141.196 415.719 136.704L417.313 135.762L417.386 134.893L415.429 136.052C407.604 140.471 388.405 151.629 382.971 154.817Z" fill="#1C36F5"/>
<path d="M382.971 158.077V158.947C385.506 157.498 391.085 154.237 397.099 150.76V149.818C391.158 153.368 385.506 156.556 382.971 158.077Z" fill="#1C36F5"/>
<path d="M399.127 148.659V149.528C405.431 145.833 411.952 142.065 415.719 139.892L417.313 138.95L417.386 138.081L415.429 139.24C411.662 141.413 405.358 145.108 399.127 148.659Z" fill="#1C36F5"/>
<path d="M408.474 146.413V147.282C411.3 145.616 413.835 144.166 415.719 143.08L417.313 142.138L417.386 141.268L415.429 142.428C413.545 143.514 411.155 144.891 408.474 146.413Z" fill="#1C36F5"/>
<path d="M382.971 161.265V162.135C386.738 159.961 397.678 153.585 406.445 148.514V147.644C397.751 152.644 386.883 159.019 382.971 161.265Z" fill="#1C36F5"/>
<path d="M392.462 284.362L360.873 302.765C360.8 302.765 333.413 286.898 333.413 286.898C333.34 286.826 333.34 286.681 333.413 286.608C333.413 286.608 365.147 268.133 365.22 268.205C365.147 268.205 392.607 284.29 392.462 284.362Z" fill="#1C36F5"/>
<path d="M384.347 284.217L376.812 288.565L374.639 287.333L380 284.217L378.913 283.565L380 282.913L381.087 283.565L382.174 282.913L384.347 284.217Z" fill="white"/>
<path d="M374.566 278.494L380 281.609L372.392 286.029L366.958 282.913L374.566 278.494ZM372.392 284.797L377.826 281.682L375.653 280.45L370.219 283.565L372.392 284.797Z" fill="white"/>
<path d="M363.698 272.263L369.132 275.378L361.525 279.798L356.091 276.682L363.698 272.263ZM361.525 278.494L366.958 275.378L364.785 274.146L359.351 277.262L361.525 278.494Z" fill="white"/>
<path d="M373.479 277.914L365.872 282.261L363.698 281.029L369.132 277.914L368.045 277.262L369.132 276.61L370.219 277.262L371.306 276.61L373.479 277.914Z" fill="white"/>
<path d="M354.352 282.696L359.786 285.811L352.178 290.231L346.744 287.115L354.352 282.696ZM352.251 288.999L357.685 285.884L355.511 284.652L350.077 287.767L352.251 288.999Z" fill="white"/>
<path d="M353.265 282.116L345.657 286.463L343.484 285.232L348.918 282.116L347.831 281.464L348.918 280.812L350.005 281.464L351.091 280.812L353.265 282.116Z" fill="white"/>
<path d="M365.22 288.999L370.654 292.115L363.046 296.534L357.612 293.419L365.22 288.999ZM363.118 295.303L368.552 292.187L366.379 290.956L360.945 294.071L363.118 295.303Z" fill="white"/>
<path d="M364.133 288.347L356.598 292.767L354.424 291.535L359.786 288.347L358.699 287.768L359.786 287.115L360.872 287.768L361.959 287.115L364.133 288.347Z" fill="white"/>
<path d="M386.521 233.356C386.303 233.428 386.013 233.428 385.796 233.283C384.999 232.994 384.13 232.124 383.767 230.965C383.333 229.443 383.55 227.994 384.42 227.777C385.289 227.56 386.738 228.791 387.1 230.313C387.535 231.834 387.39 233.066 386.521 233.356Z" fill="#1C36F5"/>
<path d="M305.881 349.208C305.808 349.208 278.421 333.34 278.421 333.34C278.349 333.268 278.421 320.516 278.421 320.516L305.881 336.383L337.325 318.053" fill="#8AEEFE"/>
<path d="M305.881 349.208C305.808 349.208 278.421 333.34 278.421 333.34C278.349 333.268 278.421 320.516 278.421 320.516L305.881 336.383L337.325 318.053" stroke="#1C36F5" stroke-miterlimit="10"/>
<path d="M305.881 349.135V336.383L337.325 318.053C337.398 317.98 337.543 318.053 337.543 318.125V330.732L305.881 349.135Z" fill="white" stroke="#1C36F5" stroke-miterlimit="10"/>
<path d="M290.086 336.094C289.941 336.166 289.724 336.094 289.507 336.021C288.855 335.804 288.13 335.079 287.913 334.21C287.55 332.978 287.768 331.891 288.42 331.674C289.144 331.457 290.231 332.471 290.521 333.703C290.883 334.862 290.738 335.876 290.086 336.094Z" fill="#1C36F5"/>
<path d="M268.93 97.8692L259.294 103.521L248.643 97.3621C248.571 97.3621 248.571 97.2896 248.643 97.2896L258.352 91.6383C258.352 91.6383 269.002 97.8692 268.93 97.8692Z" stroke="#1C36F5" stroke-width="0.75" stroke-miterlimit="10"/>
<path d="M261.83 128.444L254.874 132.502L247.122 128.082V128.01L254.15 123.952L261.83 128.444Z" stroke="#1C36F5" stroke-width="0.75" stroke-miterlimit="10"/>
<path d="M14.1865 163.149L7.95553 166.772L1 162.787V162.714C1 162.714 7.30352 159.019 7.30352 159.092L14.1865 163.149Z" stroke="#1C36F5" stroke-width="0.75" stroke-miterlimit="10"/>
<path d="M77.6549 281.609L67.5116 287.55L56.2814 281.102C56.2089 281.102 56.2089 281.029 56.2814 280.957L66.4973 275.016L77.6549 281.609Z" stroke="#1C36F5" stroke-width="0.75" stroke-miterlimit="10"/>
<path d="M301.027 380L291.028 385.796L280.015 379.42C279.943 379.42 279.943 379.348 280.015 379.348C280.015 379.348 290.014 373.552 290.086 373.552C290.086 373.552 301.099 380 301.027 380Z" stroke="#1C36F5" stroke-width="0.75" stroke-miterlimit="10"/>
<path d="M413.075 350.24L406.771 353.935L399.816 349.95V349.878L406.119 346.183L413.075 350.24Z" stroke="#1C36F5" stroke-width="0.75" stroke-miterlimit="10"/>
<path d="M478.626 307.982L472.323 311.677L465.367 307.692V307.62L471.671 303.925L478.626 307.982Z" stroke="#1C36F5" stroke-width="0.75" stroke-miterlimit="10"/>
<path d="M571.999 233.501L562.218 239.224L551.35 232.993C551.278 232.993 551.278 232.921 551.35 232.921L561.204 227.197C561.204 227.125 572.072 233.501 571.999 233.501Z" stroke="#1C36F5" stroke-width="0.75" stroke-miterlimit="10"/>
<path d="M503.596 348.031L493.815 353.754L482.947 347.523C482.874 347.523 482.874 347.451 482.947 347.451L492.801 341.727C492.801 341.655 503.668 348.031 503.596 348.031Z" stroke="#1C36F5" stroke-width="0.75" stroke-miterlimit="10"/>
<path d="M542.076 190.102L536.063 193.652L529.397 189.812V189.739L535.483 186.189C535.411 186.189 542.076 190.102 542.076 190.102Z" stroke="#1C36F5" stroke-width="0.75" stroke-miterlimit="10"/>
<path d="M110.403 143.225C110.403 143.225 160.686 172.64 160.468 172.785" stroke="#1C36F5" stroke-width="0.75" stroke-miterlimit="10"/>
<path d="M225.531 348.411C225.531 348.411 242.122 358.119 244.441 359.568C244.586 359.641 244.803 359.641 245.021 359.568L289.289 333.848" stroke="#1C36F5" stroke-width="0.75" stroke-miterlimit="10"/>
<path d="M385.434 231.544L378.696 235.529C378.696 235.529 413.691 256.033 413.546 256.106L378.696 276.103" stroke="#1C36F5" stroke-width="0.75" stroke-miterlimit="10"/>
<path d="M360.872 315.589C360.8 315.589 333.413 299.722 333.413 299.722C333.34 299.65 333.413 286.898 333.413 286.898L360.872 302.765L392.317 284.435" fill="#8AEEFE"/>
<path d="M360.872 315.589C360.8 315.589 333.413 299.722 333.413 299.722C333.34 299.65 333.413 286.898 333.413 286.898L360.872 302.765L392.317 284.435" stroke="#1C36F5" stroke-miterlimit="10"/>
<path d="M360.873 315.517V302.765L392.317 284.435C392.389 284.362 392.534 284.435 392.534 284.507V297.114L360.873 315.517C360.873 315.589 360.873 315.589 360.873 315.517Z" fill="white"/>
<path d="M360.873 315.517V302.765L392.317 284.435C392.389 284.362 392.534 284.435 392.534 284.507V297.114L360.873 315.517ZM360.873 315.517C360.873 315.589 360.873 315.589 360.873 315.517Z" stroke="#1C36F5" stroke-miterlimit="10"/>
<path d="M282.913 236.471C282.551 237.92 281.174 239.079 280.305 238.862C279.508 238.645 279.291 237.268 279.653 235.819C279.943 234.732 280.812 233.863 281.537 233.646C281.827 233.573 282.044 233.501 282.261 233.573C283.203 233.79 283.348 235.022 282.913 236.471Z" fill="#1C36F5"/>
<path d="M231.037 266.756C230.675 268.205 229.298 269.365 228.429 269.147C227.632 268.93 227.414 267.553 227.777 266.104C228.067 265.018 228.936 264.148 229.661 263.931C229.95 263.858 230.168 263.786 230.385 263.858C231.255 264.148 231.399 265.307 231.037 266.756Z" fill="#1C36F5"/>
<path d="M281.319 236.978C281.319 236.978 349.642 276.972 349.425 277.117" stroke="#1C36F5" stroke-width="0.75" stroke-miterlimit="10"/>
<path d="M229.95 267.336C229.95 267.336 299.288 307.909 298.998 308.054" stroke="#1C36F5" stroke-width="0.75" stroke-miterlimit="10"/>
<path d="M183.798 162.497L213.866 146.34L244.586 162.497L213.866 179.234L183.798 162.497Z" fill="white" stroke="#1C36F5" stroke-miterlimit="10"/>
<path d="M213.866 104.462V175.031L244.586 157.353L213.866 104.462Z" fill="white" stroke="#1C36F5" stroke-miterlimit="10"/>
<path d="M183.798 157.86L213.866 175.031V104.462L183.798 157.86Z" fill="#8AEEFE" stroke="#1C36F5" stroke-miterlimit="10"/>
<path d="M183.798 162.497L213.866 179.234V210.461L183.798 162.497Z" fill="#8AEEFE" stroke="#1C36F5" stroke-miterlimit="10"/>
<path d="M213.866 179.234L244.586 162.497L213.866 210.461V179.234Z" fill="#495EF7" stroke="#1C36F5" stroke-miterlimit="10"/>
</svg>
