<svg width="41" height="37" viewBox="0 0 41 37" fill="none" xmlns="http://www.w3.org/2000/svg">
<rect x="0.973831" y="0.431152" width="39.9225" height="36.5243" rx="18.2622" fill="url(#paint0_linear_107_751)"/>
<path fill-rule="evenodd" clip-rule="evenodd" d="M19.964 13.047C20.204 12.8274 20.5931 12.8274 20.8332 13.047L26.5698 18.2953C26.6851 18.4008 26.7499 18.5438 26.7499 18.6929C26.7499 18.8421 26.6851 18.9851 26.5698 19.0906L20.8332 24.339C20.5931 24.5586 20.204 24.5586 19.964 24.339C19.7239 24.1194 19.7239 23.7633 19.964 23.5437L24.6513 19.2553H11.3838C11.0443 19.2553 10.7691 19.0035 10.7691 18.6929C10.7691 18.3824 11.0443 18.1306 11.3838 18.1306H24.6513L19.964 13.8423C19.7239 13.6227 19.7239 13.2666 19.964 13.047Z" fill="#E6FBFF"/>
<defs>
<linearGradient id="paint0_linear_107_751" x1="-18.3871" y1="18.6933" x2="48.5864" y2="18.6933" gradientUnits="userSpaceOnUse">
<stop stop-color="#00D9FD"/>
<stop offset="1" stop-color="#1C36F5"/>
</linearGradient>
</defs>
</svg>
