<svg width="33" height="34" viewBox="0 0 33 34" fill="none" xmlns="http://www.w3.org/2000/svg">
<rect y="0.735107" width="32.53" height="32.53" rx="4.07" fill="#54E6FE"/>
<rect y="0.735107" width="32.53" height="32.53" rx="4.07" fill="url(#paint0_linear_104_394)"/>
<path d="M10.9356 11.6545C10.5853 12.0631 10.3846 12.589 10.3846 13.1432V20.8365C10.3846 21.3907 10.5853 21.9166 10.9356 22.3252H9.39812C9.74846 21.9166 9.9491 21.3907 9.9491 20.8365V13.1432C9.9491 12.589 9.74846 12.0631 9.39812 11.6545H10.9356Z" stroke="#010736" stroke-width="1.52539"/>
<path d="M17.0333 11.6545C16.6829 12.0631 16.4823 12.589 16.4823 13.1432V20.8365C16.4823 21.3907 16.6829 21.9166 17.0333 22.3252H15.4958C15.8462 21.9166 16.0468 21.3907 16.0468 20.8365V13.1432C16.0468 12.589 15.8462 12.0631 15.4958 11.6545H17.0333Z" stroke="#010736" stroke-width="1.52539"/>
<path d="M23.1309 11.6545C22.7805 12.0631 22.5799 12.589 22.5799 13.1432V20.8365C22.5799 21.3907 22.7805 21.9166 23.1309 22.3252H21.5934C21.9438 21.9166 22.1444 21.3907 22.1444 20.8365V13.1432C22.1444 12.589 21.9438 12.0631 21.5934 11.6545H23.1309Z" stroke="#010736" stroke-width="1.52539"/>
<defs>
<linearGradient id="paint0_linear_104_394" x1="16.265" y1="0.735107" x2="16.265" y2="33.2651" gradientUnits="userSpaceOnUse">
<stop stop-color="#54E6FE"/>
<stop offset="1" stop-color="#1C36F5" stop-opacity="0.8"/>
</linearGradient>
</defs>
</svg>
