<svg width="33" height="34" viewBox="0 0 33 34" fill="none" xmlns="http://www.w3.org/2000/svg">
<rect y="0.734985" width="32.53" height="32.53" rx="4.07" fill="#33E1FD"/>
<rect y="0.734985" width="32.53" height="32.53" rx="4.07" fill="url(#paint0_linear_104_386)"/>
<path d="M13.9844 11.6544C13.6341 12.063 13.4335 12.5889 13.4335 13.1431V20.8363C13.4335 21.3906 13.6341 21.9165 13.9844 22.325H12.447C12.7973 21.9165 12.9979 21.3906 12.9979 20.8363V13.1431C12.9979 12.5889 12.7973 12.063 12.447 11.6544H13.9844Z" stroke="#010736" stroke-width="1.52539"/>
<path d="M20.0821 11.6544C19.7317 12.063 19.5311 12.5889 19.5311 13.1431V20.8363C19.5311 21.3906 19.7317 21.9165 20.0821 22.325H18.5446C18.895 21.9165 19.0956 21.3906 19.0956 20.8363V13.1431C19.0956 12.5889 18.895 12.063 18.5446 11.6544H20.0821Z" stroke="#010736" stroke-width="1.52539"/>
<defs>
<linearGradient id="paint0_linear_104_386" x1="16.265" y1="0.734985" x2="16.265" y2="33.265" gradientUnits="userSpaceOnUse">
<stop stop-color="#54E6FE"/>
<stop offset="1" stop-color="#1C36F5" stop-opacity="0.8"/>
</linearGradient>
</defs>
</svg>
