<svg width="56" height="57" viewBox="0 0 56 57" fill="none" xmlns="http://www.w3.org/2000/svg">
<circle cx="28" cy="28.1094" r="28" fill="url(#paint0_linear_19_491)"/>
<path d="M28.17 19.5693L23.33 23.4893C22.525 24.1393 22.37 25.3093 22.98 26.1443C23.625 27.0343 24.88 27.2093 25.745 26.5343L30.71 22.6743C31.06 22.4043 31.56 22.4643 31.835 22.8143C32.11 23.1643 32.045 23.6643 31.695 23.9393L30.65 24.7493L37.6 31.1493V21.7093H37.565L37.37 21.5843L33.74 19.2593C32.975 18.7693 32.08 18.5093 31.17 18.5093C30.08 18.5093 29.02 18.8843 28.17 19.5693ZM29.31 25.7893L26.725 27.7993C25.15 29.0293 22.865 28.7093 21.685 27.0893C20.575 25.5643 20.855 23.4343 22.32 22.2493L26.48 18.8843C25.9 18.6393 25.275 18.5143 24.64 18.5143C23.7 18.5093 22.785 18.7893 22 19.3093L18.4 21.7093V32.9093H19.81L24.38 37.0793C25.36 37.9743 26.875 37.9043 27.77 36.9243C28.045 36.6193 28.23 36.2643 28.325 35.8943L29.175 36.6743C30.15 37.5693 31.67 37.5043 32.565 36.5293C32.79 36.2843 32.955 35.9993 33.06 35.7043C34.03 36.3543 35.35 36.2193 36.165 35.3293C37.06 34.3543 36.995 32.8343 36.02 31.9393L29.31 25.7893ZM12.8 21.7093C12.36 21.7093 12 22.0693 12 22.5093V32.9093C12 33.7943 12.715 34.5093 13.6 34.5093H15.2C16.085 34.5093 16.8 33.7943 16.8 32.9093V21.7093H12.8ZM14.4 31.3093C14.6122 31.3093 14.8157 31.3936 14.9657 31.5436C15.1157 31.6936 15.2 31.8971 15.2 32.1093C15.2 32.3215 15.1157 32.5249 14.9657 32.675C14.8157 32.825 14.6122 32.9093 14.4 32.9093C14.1878 32.9093 13.9843 32.825 13.8343 32.675C13.6843 32.5249 13.6 32.3215 13.6 32.1093C13.6 31.8971 13.6843 31.6936 13.8343 31.5436C13.9843 31.3936 14.1878 31.3093 14.4 31.3093ZM39.2 21.7093V32.9093C39.2 33.7943 39.915 34.5093 40.8 34.5093H42.4C43.285 34.5093 44 33.7943 44 32.9093V22.5093C44 22.0693 43.64 21.7093 43.2 21.7093H39.2ZM40.8 32.1093C40.8 31.8971 40.8843 31.6936 41.0343 31.5436C41.1843 31.3936 41.3878 31.3093 41.6 31.3093C41.8122 31.3093 42.0157 31.3936 42.1657 31.5436C42.3157 31.6936 42.4 31.8971 42.4 32.1093C42.4 32.3215 42.3157 32.5249 42.1657 32.675C42.0157 32.825 41.8122 32.9093 41.6 32.9093C41.3878 32.9093 41.1843 32.825 41.0343 32.675C40.8843 32.5249 40.8 32.3215 40.8 32.1093Z" fill="#E8EBFE"/>
<defs>
<linearGradient id="paint0_linear_19_491" x1="28" y1="0.109375" x2="28" y2="56.1094" gradientUnits="userSpaceOnUse">
<stop stop-color="#00D9FD"/>
<stop offset="1" stop-color="#1C36F5"/>
</linearGradient>
</defs>
</svg>
