<svg width="56" height="57" viewBox="0 0 56 57" fill="none" xmlns="http://www.w3.org/2000/svg">
<circle cx="28" cy="28.1094" r="28" fill="url(#paint0_linear_19_482)"/>
<path fill-rule="evenodd" clip-rule="evenodd" d="M41.3333 28.1095C41.3333 35.4735 35.364 41.4428 28 41.4428C20.636 41.4428 14.6667 35.4735 14.6667 28.1095C14.6667 20.7455 20.636 14.7761 28 14.7761C35.364 14.7761 41.3333 20.7455 41.3333 28.1095ZM29.984 20.7041C30.2399 20.7729 30.4581 20.9404 30.5906 21.1699C30.7231 21.3994 30.7591 21.6721 30.6907 21.9281L27.24 34.8081C27.2059 34.935 27.1472 35.0539 27.0672 35.1581C26.9872 35.2622 26.8875 35.3496 26.7737 35.4152C26.5439 35.5478 26.2709 35.5836 26.0147 35.5148C25.7585 35.446 25.5401 35.2783 25.4075 35.0485C25.275 34.8187 25.2392 34.5457 25.308 34.2895L28.76 21.4108C28.8287 21.1549 28.9963 20.9367 29.2258 20.8042C29.4553 20.6717 29.728 20.6357 29.984 20.7041ZM31.96 23.4028C32.1475 23.2155 32.4017 23.1103 32.6667 23.1103C32.9317 23.1103 33.1858 23.2155 33.3733 23.4028L33.652 23.6801C34.4987 24.5268 35.2053 25.2335 35.6907 25.8695C36.2027 26.5415 36.5627 27.2508 36.5627 28.1095C36.5627 28.9681 36.2027 29.6775 35.6907 30.3495C35.2053 30.9855 34.4987 31.6921 33.6507 32.5388L33.3733 32.8161C33.2818 32.9144 33.1714 32.9932 33.0487 33.0478C32.926 33.1025 32.7936 33.1319 32.6594 33.1342C32.5251 33.1366 32.3917 33.1119 32.2672 33.0616C32.1427 33.0113 32.0296 32.9365 31.9346 32.8415C31.8396 32.7465 31.7648 32.6334 31.7145 32.5089C31.6642 32.3844 31.6395 32.251 31.6419 32.1168C31.6442 31.9825 31.6736 31.8501 31.7283 31.7274C31.7829 31.6047 31.8617 31.4943 31.96 31.4028L32.188 31.1735C33.0973 30.2641 33.7067 29.6535 34.1 29.1361C34.4773 28.6428 34.5627 28.3548 34.5627 28.1095C34.5627 27.8641 34.4773 27.5761 34.1 27.0828C33.7067 26.5668 33.0973 25.9548 32.188 25.0455L31.96 24.8161C31.7727 24.6286 31.6675 24.3745 31.6675 24.1095C31.6675 23.8445 31.7727 23.5903 31.96 23.4028ZM22.6267 23.4028C22.8162 23.2262 23.067 23.13 23.326 23.1346C23.5851 23.1391 23.8323 23.2441 24.0155 23.4273C24.1987 23.6105 24.3037 23.8577 24.3082 24.1168C24.3128 24.3758 24.2166 24.6266 24.04 24.8161L23.812 25.0455C22.9027 25.9548 22.2947 26.5655 21.9 27.0828C21.5227 27.5761 21.4387 27.8641 21.4387 28.1095C21.4387 28.3548 21.5227 28.6428 21.9 29.1361C22.2947 29.6521 22.9027 30.2641 23.812 31.1735L24.0413 31.4028C24.1368 31.4951 24.2129 31.6055 24.2653 31.7275C24.3176 31.8495 24.3451 31.9808 24.3462 32.1135C24.3473 32.2463 24.322 32.378 24.2716 32.5009C24.2213 32.6237 24.147 32.7353 24.053 32.8292C23.9591 32.923 23.8474 32.9972 23.7245 33.0475C23.6016 33.0977 23.4699 33.1229 23.3371 33.1217C23.2043 33.1205 23.0731 33.0928 22.9511 33.0404C22.8292 32.9879 22.7189 32.9117 22.6267 32.8161L22.3493 32.5388C21.5013 31.6921 20.7947 30.9855 20.3093 30.3495C19.7973 29.6775 19.4387 28.9681 19.4387 28.1095C19.4387 27.2508 19.7987 26.5415 20.3093 25.8695C20.7947 25.2335 21.5013 24.5268 22.3493 23.6801L22.6267 23.4028Z" fill="#E8EBFE"/>
<defs>
<linearGradient id="paint0_linear_19_482" x1="28" y1="0.109375" x2="28" y2="56.1094" gradientUnits="userSpaceOnUse">
<stop stop-color="#00D9FD"/>
<stop offset="1" stop-color="#1C36F5"/>
</linearGradient>
</defs>
</svg>
