<svg width="40" height="41" viewBox="0 0 40 41" fill="none" xmlns="http://www.w3.org/2000/svg">
<rect y="0.108887" width="40" height="40" rx="20" fill="#01052B"/>
<g clip-path="url(#clip0_25_787)">
<path d="M19.9975 22.8207C21.4965 22.8207 22.7118 21.6054 22.7118 20.1064C22.7118 18.6073 21.4965 17.3921 19.9975 17.3921C18.4984 17.3921 17.2832 18.6073 17.2832 20.1064C17.2832 21.6054 18.4984 22.8207 19.9975 22.8207Z" fill="#00D9FD"/>
<path d="M23.3905 11.9644H16.6048C13.9862 11.9644 11.8555 14.0957 11.8555 16.715V23.5007C11.8555 26.1194 13.9869 28.2501 16.6061 28.2501H23.3919C26.0105 28.2501 28.1412 26.1187 28.1412 23.4994V16.7137C28.1412 14.0951 26.0098 11.9644 23.3905 11.9644ZM19.9983 24.1786C17.7529 24.1786 15.9269 22.3526 15.9269 20.1072C15.9269 17.8618 17.7529 16.0358 19.9983 16.0358C22.2437 16.0358 24.0698 17.8618 24.0698 20.1072C24.0698 22.3526 22.2437 24.1786 19.9983 24.1786ZM24.7483 16.0358C24.3738 16.0358 24.0698 15.7318 24.0698 15.3572C24.0698 14.9826 24.3738 14.6786 24.7483 14.6786C25.1229 14.6786 25.4269 14.9826 25.4269 15.3572C25.4269 15.7318 25.1229 16.0358 24.7483 16.0358Z" fill="#00D9FD"/>
</g>
<defs>
<clipPath id="clip0_25_787">
<rect width="17.1429" height="17.1429" fill="white" transform="translate(11.4277 11.5366)"/>
</clipPath>
</defs>
</svg>
