<svg width="40" height="41" viewBox="0 0 40 41" fill="none" xmlns="http://www.w3.org/2000/svg">
<rect y="0.108887" width="40" height="40" rx="20" fill="#01052B"/>
<g clip-path="url(#clip0_25_797)">
<path d="M28.5357 13.3423C28.5219 13.279 28.4916 13.2206 28.4478 13.1728C28.4041 13.1251 28.3484 13.0899 28.2866 13.0707C28.0615 13.0263 27.8286 13.0429 27.6121 13.1189C27.6121 13.1189 12.5923 18.5173 11.7346 19.1152C11.5493 19.2437 11.4877 19.3182 11.4571 19.4066C11.3087 19.8319 11.7705 20.0194 11.7705 20.0194L15.6416 21.281C15.707 21.2923 15.7741 21.2883 15.8377 21.2693C16.7184 20.7132 24.6978 15.6743 25.1591 15.505C25.2314 15.483 25.285 15.505 25.2732 15.5585C25.0846 16.2046 18.1937 22.3284 18.1557 22.3659C18.1372 22.381 18.1227 22.4005 18.1133 22.4225C18.104 22.4445 18.1002 22.4685 18.1021 22.4923L17.7421 26.2696C17.7421 26.2696 17.5911 27.4482 18.7675 26.2696C19.6016 25.4344 20.4019 24.7434 20.8032 24.4075C22.1344 25.3262 23.5669 26.3425 24.1846 26.8718C24.2883 26.9724 24.4111 27.0512 24.5459 27.1033C24.6806 27.1554 24.8245 27.1797 24.9689 27.175C25.5582 27.1525 25.7189 26.508 25.7189 26.508C25.7189 26.508 28.4553 15.4964 28.5475 14.0205C28.5561 13.8759 28.5684 13.7832 28.5694 13.6841C28.5743 13.5691 28.563 13.4541 28.5357 13.3423Z" fill="#00D9FD"/>
</g>
<defs>
<clipPath id="clip0_25_797">
<rect width="17.1429" height="17.1429" fill="white" transform="translate(11.4277 11.5366)"/>
</clipPath>
</defs>
</svg>
