<svg width="33" height="34" viewBox="0 0 33 34" fill="none" xmlns="http://www.w3.org/2000/svg">
<rect y="0.735107" width="32.53" height="32.53" rx="4.07" fill="#54E6FE"/>
<rect y="0.735107" width="32.53" height="32.53" rx="4.07" fill="url(#paint0_linear_65_2079)"/>
<path d="M15.6091 11.6545H17.1975C16.7972 12.2272 16.6696 12.9695 16.8954 13.6685L19.3908 21.3911C19.506 21.7476 19.706 22.0675 19.9703 22.3252H18.3818C18.7821 21.7525 18.9098 21.0102 18.684 20.3112L16.1886 12.5886C16.0734 12.2322 15.8734 11.9123 15.6091 11.6545Z" stroke="#010736" stroke-width="1.52539"/>
<path d="M23.0191 11.6545C22.7548 11.9123 22.5548 12.2322 22.4396 12.5886L19.9442 20.3112C19.7184 21.0102 19.8461 21.7525 20.2464 22.3252H18.6579C18.9222 22.0675 19.1222 21.7476 19.2374 21.3911L21.7328 13.6685C21.9586 12.9695 21.831 12.2272 21.4307 11.6545H23.0191Z" stroke="#010736" stroke-width="1.52539"/>
<path d="M10.9356 11.6545C10.5853 12.0631 10.3846 12.589 10.3846 13.1432V20.8365C10.3846 21.3907 10.5853 21.9166 10.9356 22.3252H9.39813C9.74847 21.9166 9.9491 21.3907 9.9491 20.8365V13.1432C9.9491 12.589 9.74847 12.0631 9.39813 11.6545H10.9356Z" stroke="#010736" stroke-width="1.52539"/>
<defs>
<linearGradient id="paint0_linear_65_2079" x1="16.265" y1="0.735107" x2="16.265" y2="33.2651" gradientUnits="userSpaceOnUse">
<stop stop-color="#54E6FE"/>
<stop offset="1" stop-color="#1C36F5" stop-opacity="0.8"/>
</linearGradient>
</defs>
</svg>
