<svg width="56" height="57" viewBox="0 0 56 57" fill="none" xmlns="http://www.w3.org/2000/svg">
<circle cx="28" cy="28.1094" r="28" fill="url(#paint0_linear_19_364)"/>
<path d="M23.5 19.6094C23.5 18.4159 23.9741 17.2713 24.818 16.4274C25.6619 15.5835 26.8065 15.1094 28 15.1094C29.1935 15.1094 30.3381 15.5835 31.182 16.4274C32.0259 17.2713 32.5 18.4159 32.5 19.6094C32.5 20.8028 32.0259 21.9474 31.182 22.7914C30.3381 23.6353 29.1935 24.1094 28 24.1094C26.8065 24.1094 25.6619 23.6353 24.818 22.7914C23.9741 21.9474 23.5 20.8028 23.5 19.6094ZM18 18.1094C16.9391 18.1094 15.9217 18.5308 15.1716 19.2809C14.4214 20.0311 14 21.0485 14 22.1094C14 23.1702 14.4214 24.1877 15.1716 24.9378C15.9217 25.6879 16.9391 26.1094 18 26.1094C19.0609 26.1094 20.0783 25.6879 20.8284 24.9378C21.5786 24.1877 22 23.1702 22 22.1094C22 21.0485 21.5786 20.0311 20.8284 19.2809C20.0783 18.5308 19.0609 18.1094 18 18.1094ZM38 18.1094C36.9391 18.1094 35.9217 18.5308 35.1716 19.2809C34.4214 20.0311 34 21.0485 34 22.1094C34 23.1702 34.4214 24.1877 35.1716 24.9378C35.9217 25.6879 36.9391 26.1094 38 26.1094C39.0609 26.1094 40.0783 25.6879 40.8284 24.9378C41.5786 24.1877 42 23.1702 42 22.1094C42 21.0485 41.5786 20.0311 40.8284 19.2809C40.0783 18.5308 39.0609 18.1094 38 18.1094ZM20.5 28.6094C20.5 28.3867 20.5177 28.1697 20.553 27.9584L15.853 29.2174C15.2127 29.3891 14.6668 29.8082 14.3354 30.3825C14.004 30.9567 13.9143 31.639 14.086 32.2794L14.992 35.6594C15.2107 36.476 15.5995 37.2373 16.1329 37.8931C16.6664 38.549 17.3324 39.0848 18.0874 39.4653C18.8423 39.8458 19.6692 40.0625 20.5137 40.1011C21.3583 40.1397 22.2015 39.9994 22.988 39.6894C22.204 38.9868 21.5771 38.1265 21.1483 37.165C20.7196 36.2034 20.4987 35.1622 20.5 34.1094V28.6094ZM35.5 34.1094C35.5011 35.1623 35.2799 36.2037 34.8508 37.1652C34.4217 38.1268 33.7944 38.9869 33.01 39.6894C33.22 39.772 33.4357 39.843 33.657 39.9024C35.1941 40.3141 36.8317 40.0983 38.2097 39.3026C39.5877 38.5069 40.5932 37.1964 41.005 35.6594L41.911 32.2794C41.996 31.9622 42.0177 31.6315 41.9748 31.3059C41.932 30.9804 41.8254 30.6665 41.6612 30.3822C41.497 30.0978 41.2785 29.8486 41.018 29.6488C40.7575 29.4489 40.4602 29.3023 40.143 29.2174L35.447 27.9584C35.4823 28.171 35.5 28.388 35.5 28.6094V34.1094ZM24.5 26.1094C23.837 26.1094 23.2011 26.3728 22.7322 26.8416C22.2634 27.3104 22 27.9463 22 28.6094V34.1094C22 35.7007 22.6321 37.2268 23.7574 38.352C24.8826 39.4772 26.4087 40.1094 28 40.1094C29.5913 40.1094 31.1174 39.4772 32.2426 38.352C33.3679 37.2268 34 35.7007 34 34.1094V28.6094C34 27.9463 33.7366 27.3104 33.2678 26.8416C32.7989 26.3728 32.163 26.1094 31.5 26.1094H24.5Z" fill="#E8EBFE"/>
<defs>
<linearGradient id="paint0_linear_19_364" x1="28" y1="0.109375" x2="28" y2="56.1094" gradientUnits="userSpaceOnUse">
<stop stop-color="#00D9FD"/>
<stop offset="1" stop-color="#1C36F5"/>
</linearGradient>
</defs>
</svg>
