<svg width="56" height="57" viewBox="0 0 56 57" fill="none" xmlns="http://www.w3.org/2000/svg">
<circle cx="28" cy="28.1094" r="28" fill="url(#paint0_linear_19_510)"/>
<path fill-rule="evenodd" clip-rule="evenodd" d="M35.2533 16.1094C35.6069 16.1095 35.946 16.25 36.196 16.5L39.6093 19.9134C39.8593 20.1634 39.9997 20.5025 39.9997 20.856C39.9997 21.2096 39.8593 21.5487 39.6093 21.7987L36.2587 25.1494L30.96 19.8507L34.3107 16.5C34.5607 16.25 34.8997 16.1095 35.2533 16.1094ZM29.0747 21.736L16.3907 34.42C16.1407 34.6701 16.0003 35.0092 16.0003 35.3627C16.0003 35.7163 16.1407 36.0553 16.3907 36.3054L19.804 39.7187C20.054 39.9687 20.3931 40.1091 20.7467 40.1091C21.1002 40.1091 21.4393 39.9687 21.6893 39.7187L34.3733 27.0347L29.0747 21.736ZM20 20.1094C20.3536 20.1094 20.6928 20.2499 20.9428 20.4999C21.1929 20.7499 21.3333 21.0891 21.3333 21.4427V22.776H22.6667C23.0203 22.776 23.3594 22.9165 23.6095 23.1666C23.8595 23.4166 24 23.7558 24 24.1094C24 24.463 23.8595 24.8021 23.6095 25.0522C23.3594 25.3022 23.0203 25.4427 22.6667 25.4427H21.3333V26.776C21.3333 27.1297 21.1929 27.4688 20.9428 27.7189C20.6928 27.9689 20.3536 28.1094 20 28.1094C19.6464 28.1094 19.3072 27.9689 19.0572 27.7189C18.8071 27.4688 18.6667 27.1297 18.6667 26.776V25.4427H17.3333C16.9797 25.4427 16.6406 25.3022 16.3905 25.0522C16.1405 24.8021 16 24.463 16 24.1094C16 23.7558 16.1405 23.4166 16.3905 23.1666C16.6406 22.9165 16.9797 22.776 17.3333 22.776H18.6667V21.4427C18.6667 21.0891 18.8071 20.7499 19.0572 20.4999C19.3072 20.2499 19.6464 20.1094 20 20.1094ZM32 32.1094C32.3536 32.1094 32.6928 32.2499 32.9428 32.4999C33.1929 32.7499 33.3333 33.0891 33.3333 33.4427V34.776H34.6667C35.0203 34.776 35.3594 34.9165 35.6095 35.1666C35.8595 35.4166 36 35.7558 36 36.1094C36 36.463 35.8595 36.8021 35.6095 37.0522C35.3594 37.3022 35.0203 37.4427 34.6667 37.4427H33.3333V38.776C33.3333 39.1297 33.1929 39.4688 32.9428 39.7189C32.6928 39.9689 32.3536 40.1094 32 40.1094C31.6464 40.1094 31.3072 39.9689 31.0572 39.7189C30.8071 39.4688 30.6667 39.1297 30.6667 38.776V37.4427H29.3333C28.9797 37.4427 28.6406 37.3022 28.3905 37.0522C28.1405 36.8021 28 36.463 28 36.1094C28 35.7558 28.1405 35.4166 28.3905 35.1666C28.6406 34.9165 28.9797 34.776 29.3333 34.776H30.6667V33.4427C30.6667 33.0891 30.8071 32.7499 31.0572 32.4999C31.3072 32.2499 31.6464 32.1094 32 32.1094Z" fill="#E8EBFE"/>
<path d="M37.3333 29.4427H34.6667V32.1094H37.3333V29.4427ZM29.3333 16.1094H26.6667V18.776H29.3333V16.1094ZM26.6667 18.776H24V21.4427H26.6667V18.776ZM24 16.1094H21.3333V18.776H24V16.1094ZM40 26.776H37.3333V29.4427H40V26.776ZM40 32.1094H37.3333V34.776H40V32.1094Z" fill="#E8EBFE"/>
<defs>
<linearGradient id="paint0_linear_19_510" x1="28" y1="0.109375" x2="28" y2="56.1094" gradientUnits="userSpaceOnUse">
<stop stop-color="#00D9FD"/>
<stop offset="1" stop-color="#1C36F5"/>
</linearGradient>
</defs>
</svg>
