<svg width="183" height="41" viewBox="0 0 183 41" fill="none" xmlns="http://www.w3.org/2000/svg">
<path d="M45.3919 32.1089V8.83616H53.9146C55.5662 8.83616 56.9336 9.10889 58.0169 9.65434C59.1002 10.1922 59.9109 10.9233 60.4487 11.8475C60.9866 12.7642 61.2556 13.7983 61.2556 14.9498C61.2556 15.9195 61.0775 16.7377 60.7215 17.4043C60.3654 18.0634 59.8881 18.5937 59.2896 18.9952C58.6987 19.3892 58.0472 19.6771 57.3351 19.8589V20.0862C58.1078 20.124 58.8616 20.374 59.5965 20.8362C60.3389 21.2907 60.9525 21.9384 61.4374 22.7793C61.9222 23.6203 62.1646 24.643 62.1646 25.8475C62.1646 27.0369 61.8843 28.1051 61.3237 29.0521C60.7707 29.9915 59.9146 30.7377 58.7556 31.2907C57.5965 31.8362 56.1154 32.1089 54.3124 32.1089H45.3919ZM48.9033 29.0975H53.9715C55.6533 29.0975 56.8578 28.7718 57.5851 28.1203C58.3124 27.4687 58.676 26.6543 58.676 25.6771C58.676 24.9422 58.4904 24.268 58.1192 23.6543C57.748 23.0407 57.2177 22.5521 56.5283 22.1884C55.8465 21.8248 55.0359 21.643 54.0965 21.643H48.9033V29.0975ZM48.9033 18.9043H53.6078C54.3957 18.9043 55.104 18.7528 55.7328 18.4498C56.3692 18.1468 56.873 17.7225 57.2442 17.1771C57.623 16.624 57.8124 15.9725 57.8124 15.2225C57.8124 14.2604 57.4753 13.4536 56.801 12.8021C56.1268 12.1506 55.0927 11.8248 53.6987 11.8248H48.9033V18.9043ZM68.8144 8.83616V32.1089H65.4167V8.83616H68.8144ZM80.0977 32.4612C78.4613 32.4612 77.0333 32.0862 75.8136 31.3362C74.5939 30.5862 73.647 29.5369 72.9727 28.1884C72.2985 26.8399 71.9613 25.2642 71.9613 23.4612C71.9613 21.6506 72.2985 20.0672 72.9727 18.7112C73.647 17.3551 74.5939 16.3021 75.8136 15.5521C77.0333 14.8021 78.4613 14.4271 80.0977 14.4271C81.7341 14.4271 83.1621 14.8021 84.3818 15.5521C85.6015 16.3021 86.5485 17.3551 87.2227 18.7112C87.897 20.0672 88.2341 21.6506 88.2341 23.4612C88.2341 25.2642 87.897 26.8399 87.2227 28.1884C86.5485 29.5369 85.6015 30.5862 84.3818 31.3362C83.1621 32.0862 81.7341 32.4612 80.0977 32.4612ZM80.1091 29.6089C81.1697 29.6089 82.0485 29.3286 82.7454 28.768C83.4424 28.2074 83.9576 27.4612 84.2909 26.5293C84.6318 25.5975 84.8023 24.571 84.8023 23.4498C84.8023 22.3362 84.6318 21.3134 84.2909 20.3816C83.9576 19.4422 83.4424 18.6884 82.7454 18.1202C82.0485 17.5521 81.1697 17.268 80.1091 17.268C79.0409 17.268 78.1545 17.5521 77.45 18.1202C76.753 18.6884 76.2341 19.4422 75.8932 20.3816C75.5598 21.3134 75.3932 22.3362 75.3932 23.4498C75.3932 24.571 75.5598 25.5975 75.8932 26.5293C76.2341 27.4612 76.753 28.2074 77.45 28.768C78.1545 29.3286 79.0409 29.6089 80.1091 29.6089ZM98.739 32.4612C97.0496 32.4612 95.595 32.0786 94.3753 31.3134C93.1632 30.5407 92.2314 29.4763 91.5799 28.1203C90.9284 26.7642 90.6026 25.2112 90.6026 23.4612C90.6026 21.6884 90.9359 20.124 91.6026 18.768C92.2693 17.4043 93.2087 16.3399 94.4208 15.5748C95.6329 14.8096 97.0609 14.4271 98.7049 14.4271C100.031 14.4271 101.212 14.6733 102.25 15.1657C103.288 15.6506 104.125 16.3324 104.762 17.2112C105.406 18.0899 105.788 19.1165 105.909 20.2907H102.603C102.421 19.4725 102.004 18.768 101.353 18.1771C100.709 17.5862 99.845 17.2907 98.7617 17.2907C97.8147 17.2907 96.9852 17.5407 96.2731 18.0407C95.5685 18.5331 95.0193 19.2377 94.6253 20.1543C94.2314 21.0634 94.0344 22.1392 94.0344 23.3816C94.0344 24.6543 94.2276 25.7528 94.614 26.6771C95.0003 27.6013 95.5458 28.3172 96.2503 28.8248C96.9624 29.3324 97.7996 29.5862 98.7617 29.5862C99.4056 29.5862 99.989 29.4687 100.512 29.2339C101.042 28.9915 101.485 28.6468 101.841 28.1998C102.205 27.7528 102.459 27.2149 102.603 26.5862H105.909C105.788 27.7149 105.421 28.7225 104.807 29.6089C104.194 30.4953 103.372 31.1922 102.341 31.6998C101.319 32.2074 100.118 32.4612 98.739 32.4612ZM116.426 32.4612C114.706 32.4612 113.225 32.0937 111.982 31.3589C110.748 30.6165 109.793 29.5748 109.119 28.2339C108.452 26.8854 108.119 25.3059 108.119 23.4952C108.119 21.7074 108.452 20.1316 109.119 18.768C109.793 17.4043 110.732 16.3399 111.937 15.5748C113.149 14.8096 114.566 14.4271 116.187 14.4271C117.172 14.4271 118.126 14.5899 119.051 14.9157C119.975 15.2415 120.804 15.7528 121.539 16.4498C122.274 17.1468 122.854 18.0521 123.278 19.1657C123.702 20.2718 123.914 21.6165 123.914 23.1998V24.4043H110.039V21.8589H120.585C120.585 20.9649 120.403 20.1733 120.039 19.4839C119.676 18.7869 119.164 18.2377 118.505 17.8362C117.854 17.4346 117.089 17.2339 116.21 17.2339C115.255 17.2339 114.422 17.4687 113.71 17.9384C113.005 18.4006 112.46 19.0066 112.073 19.7566C111.695 20.499 111.505 21.3059 111.505 22.1771V24.1657C111.505 25.3324 111.71 26.3248 112.119 27.143C112.536 27.9612 113.115 28.5862 113.857 29.018C114.6 29.4422 115.467 29.6543 116.46 29.6543C117.104 29.6543 117.691 29.5634 118.221 29.3816C118.751 29.1922 119.21 28.9119 119.596 28.5407C119.982 28.1695 120.278 27.7112 120.482 27.1657L123.698 27.7453C123.441 28.6922 122.979 29.5218 122.312 30.2339C121.653 30.9384 120.823 31.4877 119.823 31.8816C118.831 32.268 117.698 32.4612 116.426 32.4612ZM133.578 32.4498C132.169 32.4498 130.912 32.0899 129.806 31.3703C128.707 30.643 127.843 29.6089 127.215 28.268C126.593 26.9195 126.283 25.3021 126.283 23.4157C126.283 21.5293 126.597 19.9157 127.226 18.5748C127.862 17.2339 128.734 16.2074 129.84 15.4953C130.946 14.7831 132.199 14.4271 133.601 14.4271C134.684 14.4271 135.556 14.6089 136.215 14.9725C136.881 15.3286 137.396 15.7452 137.76 16.2225C138.131 16.6998 138.419 17.1203 138.624 17.4839H138.828V8.83616H142.226V32.1089H138.908V29.393H138.624C138.419 29.7642 138.124 30.1884 137.737 30.6657C137.359 31.143 136.836 31.5596 136.169 31.9157C135.503 32.2718 134.639 32.4498 133.578 32.4498ZM134.328 29.5521C135.306 29.5521 136.131 29.2945 136.806 28.7793C137.487 28.2566 138.003 27.5331 138.351 26.6089C138.707 25.6846 138.885 24.6089 138.885 23.3816C138.885 22.1695 138.711 21.1089 138.362 20.1998C138.014 19.2907 137.503 18.5824 136.828 18.0748C136.154 17.5672 135.321 17.3134 134.328 17.3134C133.306 17.3134 132.453 17.5786 131.771 18.1089C131.09 18.6392 130.574 19.3627 130.226 20.2793C129.885 21.196 129.715 22.2301 129.715 23.3816C129.715 24.5483 129.889 25.5975 130.237 26.5293C130.586 27.4612 131.101 28.1998 131.783 28.7453C132.472 29.2831 133.321 29.5521 134.328 29.5521ZM153.754 39.018C152.367 39.018 151.174 38.8362 150.174 38.4725C149.182 38.1089 148.371 37.6278 147.742 37.0293C147.113 36.4309 146.644 35.7756 146.333 35.0634L149.254 33.8589C149.458 34.1922 149.731 34.5445 150.072 34.9157C150.42 35.2945 150.89 35.6165 151.481 35.8816C152.079 36.1468 152.848 36.2793 153.788 36.2793C155.076 36.2793 156.14 35.9649 156.981 35.3362C157.822 34.7149 158.242 33.7225 158.242 32.3589V28.9271H158.026C157.822 29.2983 157.526 29.7112 157.14 30.1657C156.761 30.6203 156.238 31.0142 155.572 31.3475C154.905 31.6809 154.038 31.8475 152.97 31.8475C151.591 31.8475 150.348 31.5256 149.242 30.8816C148.144 30.2301 147.273 29.2718 146.629 28.0066C145.992 26.7339 145.674 25.1695 145.674 23.3134C145.674 21.4574 145.988 19.8665 146.617 18.5407C147.254 17.2149 148.125 16.1998 149.231 15.4953C150.337 14.7831 151.591 14.4271 152.992 14.4271C154.076 14.4271 154.951 14.6089 155.617 14.9725C156.284 15.3286 156.803 15.7452 157.174 16.2225C157.553 16.6998 157.845 17.1203 158.049 17.4839H158.299V14.6543H161.629V32.4953C161.629 33.9953 161.28 35.2263 160.583 36.1884C159.886 37.1506 158.943 37.8627 157.754 38.3248C156.572 38.7869 155.238 39.018 153.754 39.018ZM153.72 29.0293C154.697 29.0293 155.523 28.8021 156.197 28.3475C156.879 27.8854 157.394 27.2263 157.742 26.3703C158.098 25.5066 158.276 24.4725 158.276 23.268C158.276 22.0937 158.102 21.0596 157.754 20.1657C157.405 19.2718 156.894 18.5748 156.22 18.0748C155.545 17.5672 154.712 17.3134 153.72 17.3134C152.697 17.3134 151.845 17.5786 151.163 18.1089C150.481 18.6316 149.966 19.3437 149.617 20.2452C149.276 21.1468 149.106 22.1543 149.106 23.268C149.106 24.4119 149.28 25.4157 149.629 26.2793C149.977 27.143 150.492 27.8172 151.174 28.3021C151.863 28.7869 152.712 29.0293 153.72 29.0293ZM173.068 32.4612C171.348 32.4612 169.867 32.0937 168.625 31.3589C167.39 30.6165 166.436 29.5748 165.761 28.2339C165.095 26.8854 164.761 25.3059 164.761 23.4952C164.761 21.7074 165.095 20.1316 165.761 18.768C166.436 17.4043 167.375 16.3399 168.58 15.5748C169.792 14.8096 171.208 14.4271 172.83 14.4271C173.814 14.4271 174.769 14.5899 175.693 14.9157C176.617 15.2415 177.447 15.7528 178.182 16.4498C178.917 17.1468 179.496 18.0521 179.92 19.1657C180.345 20.2718 180.557 21.6165 180.557 23.1998V24.4043H166.682V21.8589H177.227C177.227 20.9649 177.045 20.1733 176.682 19.4839C176.318 18.7869 175.807 18.2377 175.148 17.8362C174.496 17.4346 173.731 17.2339 172.852 17.2339C171.898 17.2339 171.064 17.4687 170.352 17.9384C169.648 18.4006 169.102 19.0066 168.716 19.7566C168.337 20.499 168.148 21.3059 168.148 22.1771V24.1657C168.148 25.3324 168.352 26.3248 168.761 27.143C169.178 27.9612 169.758 28.5862 170.5 29.018C171.242 29.4422 172.11 29.6543 173.102 29.6543C173.746 29.6543 174.333 29.5634 174.864 29.3816C175.394 29.1922 175.852 28.9119 176.239 28.5407C176.625 28.1695 176.92 27.7112 177.125 27.1657L180.341 27.7453C180.083 28.6922 179.621 29.5218 178.955 30.2339C178.295 30.9384 177.466 31.4877 176.466 31.8816C175.473 32.268 174.341 32.4612 173.068 32.4612Z" fill="white"/>
</svg>
