<svg width="229" height="51" viewBox="0 0 229 51" fill="none" xmlns="http://www.w3.org/2000/svg">
<path d="M56.7399 40.6538V11.5629H67.3933C69.4577 11.5629 71.167 11.9038 72.5212 12.5856C73.8753 13.258 74.8886 14.1718 75.5609 15.3271C76.2333 16.4729 76.5694 17.7656 76.5694 19.2049C76.5694 20.4171 76.3469 21.4398 75.9018 22.2731C75.4568 23.097 74.8602 23.7599 74.1121 24.2618C73.3734 24.7542 72.559 25.114 71.6689 25.3413V25.6254C72.6348 25.6727 73.577 25.9852 74.4956 26.5629C75.4236 27.1311 76.1907 27.9407 76.7967 28.9919C77.4028 30.043 77.7058 31.3214 77.7058 32.8271C77.7058 34.3138 77.3554 35.6491 76.6547 36.8328C75.9634 38.007 74.8933 38.9398 73.4444 39.6311C71.9956 40.3129 70.1443 40.6538 67.8905 40.6538H56.7399ZM61.1291 36.8896H67.4643C69.5666 36.8896 71.0723 36.4824 71.9814 35.668C72.8905 34.8536 73.345 33.8356 73.345 32.614C73.345 31.6955 73.113 30.8527 72.649 30.0856C72.185 29.3186 71.5221 28.7078 70.6604 28.2532C69.8081 27.7987 68.7948 27.5714 67.6206 27.5714H61.1291V36.8896ZM61.1291 24.1481H67.0098C67.9946 24.1481 68.8801 23.9587 69.666 23.5799C70.4615 23.2012 71.0912 22.6709 71.5552 21.989C72.0287 21.2977 72.2655 20.4834 72.2655 19.5459C72.2655 18.3432 71.8441 17.3347 71.0013 16.5203C70.1585 15.7059 68.8658 15.2987 67.1234 15.2987H61.1291V24.1481ZM86.018 11.5629V40.6538H81.7709V11.5629H86.018ZM100.122 41.0941C98.0767 41.0941 96.2917 40.6254 94.767 39.6879C93.2424 38.7504 92.0587 37.4388 91.2159 35.7532C90.3731 34.0676 89.9517 32.0979 89.9517 29.8441C89.9517 27.5809 90.3731 25.6017 91.2159 23.9066C92.0587 22.2116 93.2424 20.8953 94.767 19.9578C96.2917 19.0203 98.0767 18.5515 100.122 18.5515C102.168 18.5515 103.953 19.0203 105.477 19.9578C107.002 20.8953 108.186 22.2116 109.028 23.9066C109.871 25.6017 110.293 27.5809 110.293 29.8441C110.293 32.0979 109.871 34.0676 109.028 35.7532C108.186 37.4388 107.002 38.7504 105.477 39.6879C103.953 40.6254 102.168 41.0941 100.122 41.0941ZM100.136 37.5288C101.462 37.5288 102.561 37.1784 103.432 36.4777C104.303 35.7769 104.947 34.8441 105.364 33.6794C105.79 32.5146 106.003 31.2315 106.003 29.8299C106.003 28.4379 105.79 27.1595 105.364 25.9947C104.947 24.8205 104.303 23.8782 103.432 23.168C102.561 22.4578 101.462 22.1027 100.136 22.1027C98.8011 22.1027 97.6932 22.4578 96.8125 23.168C95.9413 23.8782 95.2926 24.8205 94.8665 25.9947C94.4498 27.1595 94.2415 28.4379 94.2415 29.8299C94.2415 31.2315 94.4498 32.5146 94.8665 33.6794C95.2926 34.8441 95.9413 35.7769 96.8125 36.4777C97.6932 37.1784 98.8011 37.5288 100.136 37.5288ZM123.424 41.0941C121.312 41.0941 119.494 40.6159 117.969 39.6595C116.454 38.6936 115.289 37.3631 114.475 35.668C113.66 33.9729 113.253 32.0316 113.253 29.8441C113.253 27.6282 113.67 25.6727 114.503 23.9777C115.337 22.2731 116.511 20.9426 118.026 19.9862C119.541 19.0298 121.326 18.5515 123.381 18.5515C125.038 18.5515 126.516 18.8593 127.813 19.4748C129.11 20.0809 130.157 20.9332 130.952 22.0316C131.757 23.1301 132.235 24.4133 132.387 25.8811H128.253C128.026 24.8584 127.505 23.9777 126.691 23.239C125.886 22.5004 124.806 22.1311 123.452 22.1311C122.268 22.1311 121.231 22.4436 120.341 23.0686C119.461 23.6841 118.774 24.5648 118.282 25.7106C117.789 26.847 117.543 28.1917 117.543 29.7447C117.543 31.3356 117.785 32.7087 118.267 33.864C118.75 35.0193 119.432 35.9142 120.313 36.5487C121.203 37.1832 122.249 37.5004 123.452 37.5004C124.257 37.5004 124.986 37.3536 125.64 37.0601C126.302 36.757 126.856 36.3262 127.302 35.7674C127.756 35.2087 128.073 34.5364 128.253 33.7504H132.387C132.235 35.1614 131.776 36.4209 131.009 37.5288C130.242 38.6368 129.214 39.508 127.927 40.1424C126.648 40.7769 125.147 41.0941 123.424 41.0941ZM145.532 41.0941C143.382 41.0941 141.531 40.6349 139.978 39.7163C138.435 38.7883 137.241 37.4862 136.399 35.8101C135.565 34.1245 135.149 32.15 135.149 29.8868C135.149 27.6519 135.565 25.6822 136.399 23.9777C137.241 22.2731 138.416 20.9426 139.921 19.9862C141.436 19.0298 143.207 18.5515 145.234 18.5515C146.465 18.5515 147.658 18.7551 148.813 19.1623C149.969 19.5695 151.006 20.2087 151.924 21.0799C152.843 21.9512 153.567 23.0828 154.097 24.4748C154.628 25.8574 154.893 27.5383 154.893 29.5174V31.0231H137.549V27.8413H150.731C150.731 26.7239 150.504 25.7343 150.049 24.8726C149.595 24.0013 148.955 23.3148 148.132 22.8129C147.317 22.311 146.361 22.0601 145.262 22.0601C144.069 22.0601 143.027 22.3536 142.137 22.9407C141.257 23.5184 140.575 24.276 140.092 25.2135C139.618 26.1415 139.382 27.15 139.382 28.239V30.7248C139.382 32.1832 139.637 33.4237 140.149 34.4464C140.669 35.4691 141.394 36.2504 142.322 36.7902C143.25 37.3205 144.334 37.5856 145.575 37.5856C146.38 37.5856 147.114 37.472 147.776 37.2447C148.439 37.008 149.012 36.6576 149.495 36.1936C149.978 35.7296 150.347 35.1566 150.603 34.4748L154.623 35.1993C154.301 36.383 153.723 37.4199 152.89 38.3101C152.066 39.1907 151.029 39.8773 149.779 40.3697C148.539 40.8527 147.123 41.0941 145.532 41.0941ZM166.973 41.0799C165.211 41.0799 163.64 40.6301 162.257 39.7305C160.884 38.8214 159.804 37.5288 159.018 35.8527C158.242 34.1671 157.854 32.1453 157.854 29.7873C157.854 27.4294 158.247 25.4123 159.033 23.7362C159.828 22.0601 160.917 20.7769 162.3 19.8868C163.682 18.9966 165.249 18.5515 167.001 18.5515C168.355 18.5515 169.444 18.7788 170.268 19.2334C171.102 19.6784 171.746 20.1993 172.2 20.7959C172.664 21.3924 173.024 21.918 173.28 22.3726H173.535V11.5629H177.783V40.6538H173.635V37.2589H173.28C173.024 37.7229 172.655 38.2532 172.172 38.8498C171.698 39.4464 171.045 39.9673 170.211 40.4123C169.378 40.8574 168.299 41.0799 166.973 41.0799ZM167.91 37.4578C169.132 37.4578 170.164 37.1358 171.007 36.4919C171.859 35.8385 172.503 34.9341 172.939 33.7788C173.384 32.6235 173.606 31.2788 173.606 29.7447C173.606 28.2296 173.389 26.9038 172.953 25.7674C172.517 24.6311 171.878 23.7457 171.035 23.1112C170.193 22.4767 169.151 22.1595 167.91 22.1595C166.632 22.1595 165.567 22.4909 164.714 23.1538C163.862 23.8167 163.218 24.721 162.783 25.8669C162.356 27.0127 162.143 28.3053 162.143 29.7447C162.143 31.2031 162.361 32.5146 162.797 33.6794C163.232 34.8441 163.876 35.7674 164.729 36.4493C165.59 37.1216 166.651 37.4578 167.91 37.4578ZM192.192 49.2902C190.459 49.2902 188.968 49.0629 187.718 48.6084C186.477 48.1538 185.464 47.5525 184.678 46.8044C183.892 46.0563 183.305 45.2371 182.916 44.347L186.567 42.8413C186.823 43.258 187.164 43.6983 187.59 44.1623C188.025 44.6358 188.612 45.0383 189.351 45.3697C190.099 45.7012 191.06 45.8669 192.235 45.8669C193.844 45.8669 195.175 45.4739 196.226 44.6879C197.277 43.9114 197.803 42.6709 197.803 40.9663V36.6765H197.533C197.277 37.1406 196.908 37.6566 196.425 38.2248C195.951 38.793 195.298 39.2854 194.465 39.7021C193.631 40.1188 192.547 40.3271 191.212 40.3271C189.488 40.3271 187.935 39.9246 186.553 39.1197C185.18 38.3053 184.091 37.1074 183.286 35.526C182.49 33.9351 182.093 31.9796 182.093 29.6595C182.093 27.3394 182.486 25.3508 183.272 23.6936C184.067 22.0364 185.156 20.7674 186.539 19.8868C187.921 18.9966 189.488 18.5515 191.24 18.5515C192.594 18.5515 193.688 18.7788 194.522 19.2334C195.355 19.6784 196.004 20.1993 196.468 20.7959C196.941 21.3924 197.306 21.918 197.561 22.3726H197.874V18.8356H202.036V41.1368C202.036 43.0118 201.6 44.5506 200.729 45.7532C199.858 46.9559 198.679 47.846 197.192 48.4237C195.715 49.0013 194.048 49.2902 192.192 49.2902ZM192.149 36.8044C193.371 36.8044 194.403 36.5203 195.246 35.9521C196.098 35.3745 196.742 34.5506 197.178 33.4805C197.623 32.401 197.845 31.1084 197.845 29.6027C197.845 28.1349 197.628 26.8423 197.192 25.7248C196.756 24.6074 196.117 23.7362 195.274 23.1112C194.432 22.4767 193.39 22.1595 192.149 22.1595C190.871 22.1595 189.806 22.4909 188.953 23.1538C188.101 23.8072 187.457 24.6974 187.022 25.8243C186.595 26.9512 186.382 28.2106 186.382 29.6027C186.382 31.0326 186.6 32.2873 187.036 33.3669C187.471 34.4464 188.115 35.2892 188.968 35.8953C189.829 36.5013 190.89 36.8044 192.149 36.8044ZM216.335 41.0941C214.186 41.0941 212.334 40.6349 210.781 39.7163C209.238 38.7883 208.044 37.4862 207.202 35.8101C206.368 34.1245 205.952 32.15 205.952 29.8868C205.952 27.6519 206.368 25.6822 207.202 23.9777C208.044 22.2731 209.219 20.9426 210.724 19.9862C212.24 19.0298 214.01 18.5515 216.037 18.5515C217.268 18.5515 218.461 18.7551 219.616 19.1623C220.772 19.5695 221.809 20.2087 222.727 21.0799C223.646 21.9512 224.37 23.0828 224.901 24.4748C225.431 25.8574 225.696 27.5383 225.696 29.5174V31.0231H208.352V27.8413H221.534C221.534 26.7239 221.307 25.7343 220.852 24.8726C220.398 24.0013 219.759 23.3148 218.935 22.8129C218.12 22.311 217.164 22.0601 216.065 22.0601C214.872 22.0601 213.83 22.3536 212.94 22.9407C212.06 23.5184 211.378 24.276 210.895 25.2135C210.421 26.1415 210.185 27.15 210.185 28.239V30.7248C210.185 32.1832 210.44 33.4237 210.952 34.4464C211.473 35.4691 212.197 36.2504 213.125 36.7902C214.053 37.3205 215.137 37.5856 216.378 37.5856C217.183 37.5856 217.917 37.472 218.58 37.2447C219.242 37.008 219.815 36.6576 220.298 36.1936C220.781 35.7296 221.151 35.1566 221.406 34.4748L225.426 35.1993C225.104 36.383 224.526 37.4199 223.693 38.3101C222.869 39.1907 221.832 39.8773 220.582 40.3697C219.342 40.8527 217.926 41.0941 216.335 41.0941Z" fill="white"/>
</svg>
