<svg width="25" height="25" viewBox="0 0 25 25" fill="none" xmlns="http://www.w3.org/2000/svg">
<path fill-rule="evenodd" clip-rule="evenodd" d="M5.5 5.10938H19.5C21.1569 5.10938 22.5 6.45252 22.5 8.10938C22.5 9.76623 21.1569 11.1094 19.5 11.1094H5.5C3.84315 11.1094 2.5 9.76623 2.5 8.10938C2.5 6.45252 3.84315 5.10938 5.5 5.10938ZM15.5 7.10938C14.9477 7.10938 14.5 7.55709 14.5 8.10938C14.5 8.66166 14.9477 9.10938 15.5 9.10938H20C20.5523 9.10938 21 8.66166 21 8.10938C21 7.55709 20.5523 7.10938 20 7.10938H15.5ZM10 8.10938C10 7.55709 10.4477 7.10938 11 7.10938H13C13.5523 7.10938 14 7.55709 14 8.10938C14 8.66166 13.5523 9.10938 13 9.10938H11C10.4477 9.10938 10 8.66166 10 8.10938Z" fill="#00D9FD"/>
<path fill-rule="evenodd" clip-rule="evenodd" d="M5.5 14.1094H19.5C21.1569 14.1094 22.5 15.4525 22.5 17.1094C22.5 18.7662 21.1569 20.1094 19.5 20.1094H5.5C3.84315 20.1094 2.5 18.7662 2.5 17.1094C2.5 15.4525 3.84315 14.1094 5.5 14.1094ZM15.5 16.1094C14.9477 16.1094 14.5 16.5571 14.5 17.1094C14.5 17.6617 14.9477 18.1094 15.5 18.1094H20C20.5523 18.1094 21 17.6617 21 17.1094C21 16.5571 20.5523 16.1094 20 16.1094H15.5ZM10 17.1094C10 16.5571 10.4477 16.1094 11 16.1094H13C13.5523 16.1094 14 16.5571 14 17.1094C14 17.6617 13.5523 18.1094 13 18.1094H11C10.4477 18.1094 10 17.6617 10 17.1094Z" fill="#00D9FD"/>
</svg>
