<svg width="56" height="57" viewBox="0 0 56 57" fill="none" xmlns="http://www.w3.org/2000/svg">
<circle cx="28" cy="28.1094" r="28" fill="url(#paint0_linear_19_519)"/>
<g clip-path="url(#clip0_19_519)">
<path fill-rule="evenodd" clip-rule="evenodd" d="M28.9686 25.7539L33.5029 16.6819C33.5889 16.5101 33.7211 16.3657 33.8846 16.2648C34.0481 16.1638 34.2364 16.1104 34.4286 16.1104C34.6207 16.1104 34.8091 16.1638 34.9725 16.2648C35.136 16.3657 35.2682 16.5101 35.3543 16.6819L39.8903 25.7539C39.9692 25.9117 40.0064 26.0871 39.9985 26.2634C39.9905 26.4396 39.9377 26.6109 39.8449 26.761C39.7522 26.9111 39.6226 27.035 39.4686 27.121C39.3145 27.207 39.141 27.2521 38.9646 27.2522H29.8926C29.7161 27.2521 29.5427 27.207 29.3886 27.121C29.2345 27.035 29.1049 26.9111 29.0122 26.761C28.9195 26.6109 28.8666 26.4396 28.8587 26.2634C28.8508 26.0871 28.8897 25.9117 28.9686 25.7539ZM16.8571 16.9665C16.6298 16.9665 16.4118 17.0568 16.2511 17.2175C16.0903 17.3783 16 17.5963 16 17.8236V26.3951C16 26.6224 16.0903 26.8404 16.2511 27.0012C16.4118 27.1619 16.6298 27.2522 16.8571 27.2522H25.4286C25.6559 27.2522 25.8739 27.1619 26.0347 27.0012C26.1954 26.8404 26.2857 26.6224 26.2857 26.3951V17.8236C26.2857 17.5963 26.1954 17.3783 26.0347 17.2175C25.8739 17.0568 25.6559 16.9665 25.4286 16.9665H16.8571ZM26.2857 34.9665C26.2857 36.3305 25.7439 37.6386 24.7794 38.603C23.8149 39.5675 22.5068 40.1094 21.1429 40.1094C19.7789 40.1094 18.4708 39.5675 17.5063 38.603C16.5418 37.6386 16 36.3305 16 34.9665C16 33.6025 16.5418 32.2944 17.5063 31.3299C18.4708 30.3655 19.7789 29.8236 21.1429 29.8236C22.5068 29.8236 23.8149 30.3655 24.7794 31.3299C25.7439 32.2944 26.2857 33.6025 26.2857 34.9665ZM30.5714 37.5379C30.2304 37.5379 29.9034 37.6734 29.6623 37.9145C29.4212 38.1556 29.2857 38.4826 29.2857 38.8236C29.2857 39.1646 29.4212 39.4917 29.6623 39.7328C29.9034 39.9739 30.2304 40.1094 30.5714 40.1094H38.2857C38.6267 40.1094 38.9537 39.9739 39.1949 39.7328C39.436 39.4917 39.5714 39.1646 39.5714 38.8236C39.5714 38.4826 39.436 38.1556 39.1949 37.9145C38.9537 37.6734 38.6267 37.5379 38.2857 37.5379H30.5714ZM29.2857 34.9665C29.2857 34.6255 29.4212 34.2985 29.6623 34.0574C29.9034 33.8162 30.2304 33.6808 30.5714 33.6808H38.2857C38.6267 33.6808 38.9537 33.8162 39.1949 34.0574C39.436 34.2985 39.5714 34.6255 39.5714 34.9665C39.5714 35.3075 39.436 35.6345 39.1949 35.8756C38.9537 36.1167 38.6267 36.2522 38.2857 36.2522H30.5714C30.2304 36.2522 29.9034 36.1167 29.6623 35.8756C29.4212 35.6345 29.2857 35.3075 29.2857 34.9665ZM30.5714 29.8236C30.2304 29.8236 29.9034 29.9591 29.6623 30.2002C29.4212 30.4413 29.2857 30.7684 29.2857 31.1093C29.2857 31.4503 29.4212 31.7774 29.6623 32.0185C29.9034 32.2596 30.2304 32.3951 30.5714 32.3951H38.2857C38.6267 32.3951 38.9537 32.2596 39.1949 32.0185C39.436 31.7774 39.5714 31.4503 39.5714 31.1093C39.5714 30.7684 39.436 30.4413 39.1949 30.2002C38.9537 29.9591 38.6267 29.8236 38.2857 29.8236H30.5714Z" fill="#E8EBFE"/>
</g>
<defs>
<linearGradient id="paint0_linear_19_519" x1="28" y1="0.109375" x2="28" y2="56.1094" gradientUnits="userSpaceOnUse">
<stop stop-color="#00D9FD"/>
<stop offset="1" stop-color="#1C36F5"/>
</linearGradient>
<clipPath id="clip0_19_519">
<rect width="24" height="24" fill="white" transform="translate(16 16.1094)"/>
</clipPath>
</defs>
</svg>
