<svg width="25" height="25" viewBox="0 0 25 25" fill="none" xmlns="http://www.w3.org/2000/svg">
<path d="M12.5 13.6094C14.7091 13.6094 16.5 11.8185 16.5 9.60938C16.5 7.40024 14.7091 5.60938 12.5 5.60938C10.2908 5.60938 8.49998 7.40024 8.49998 9.60938C8.49998 11.8185 10.2908 13.6094 12.5 13.6094Z" fill="#00D9FD"/>
<path d="M6.76197 18.6094C5.34202 21.2794 10.0423 22.6094 12.5 22.6094C14.9576 22.6094 19.6579 21.2794 18.238 18.6094C17.1702 16.6015 15.0103 14.6094 12.5 14.6094C9.9896 14.6094 7.82977 16.6015 6.76197 18.6094Z" fill="#00D9FD"/>
<path d="M7.99998 12.6094C7.99998 13.7139 7.10455 14.6094 5.99998 14.6094C4.89541 14.6094 3.99998 13.7139 3.99998 12.6094C3.99998 11.5048 4.89541 10.6094 5.99998 10.6094C7.10455 10.6094 7.99998 11.5048 7.99998 12.6094Z" fill="#00D9FD"/>
<path d="M3.39571 20.054C3.15017 20.5487 2.55008 20.7506 2.05538 20.5051C1.56068 20.2596 1.3587 19.6595 1.60424 19.1648C1.97163 18.4246 2.5277 17.6814 3.22723 17.1128C3.92702 16.5439 4.82375 16.1094 5.84715 16.1094C6.39943 16.1094 6.84715 16.5571 6.84715 17.1094C6.84715 17.6617 6.39943 18.1094 5.84715 18.1094C5.40617 18.1094 4.94075 18.2973 4.48878 18.6647C4.03653 19.0324 3.65121 19.5392 3.39571 20.054Z" fill="#00D9FD"/>
<path d="M21.31 12.6094C21.31 13.7139 20.4146 14.6094 19.31 14.6094C18.2055 14.6094 17.31 13.7139 17.31 12.6094C17.31 11.5048 18.2055 10.6094 19.31 10.6094C20.4146 10.6094 21.31 11.5048 21.31 12.6094Z" fill="#00D9FD"/>
<path d="M23.4001 19.1648C23.6457 19.6595 23.4437 20.2596 22.949 20.5051C22.4543 20.7506 21.8542 20.5487 21.6086 20.054C21.3531 19.5392 20.9678 19.0324 20.5156 18.6647C20.0636 18.2973 19.5982 18.1094 19.1572 18.1094C18.6049 18.1094 18.1572 17.6617 18.1572 17.1094C18.1572 16.5571 18.6049 16.1094 19.1572 16.1094C20.1806 16.1094 21.0773 16.5439 21.7771 17.1128C22.4767 17.6814 23.0327 18.4246 23.4001 19.1648Z" fill="#00D9FD"/>
</svg>
