<svg width="40" height="41" viewBox="0 0 40 41" fill="none" xmlns="http://www.w3.org/2000/svg">
<rect y="0.108887" width="40" height="40" rx="20" fill="#01052B"/>
<g clip-path="url(#clip0_25_783)">
<path d="M28.5714 14.8048C27.9286 15.0726 27.2857 15.2869 26.5357 15.3405C27.2857 14.9119 27.8214 14.2155 28.0893 13.4119C27.3929 13.8405 26.6429 14.1083 25.8393 14.269C25.1964 13.5726 24.2857 13.144 23.3214 13.144C21.3929 13.144 19.7857 14.6976 19.7857 16.6798C19.7857 16.9476 19.8393 17.2155 19.8929 17.4833C16.9464 17.3226 14.375 15.9298 12.6071 13.7869C12.2857 14.3226 12.125 14.9119 12.125 15.5548C12.125 16.7869 12.7679 17.8583 13.6786 18.5012C13.0893 18.5012 12.5536 18.3405 12.0714 18.0726V18.1262C12.0714 19.8405 13.3036 21.2333 14.9107 21.5548C14.5893 21.6083 14.3214 21.6619 14 21.6619C13.7857 21.6619 13.5714 21.6619 13.3571 21.6083C13.7857 23.0012 15.125 24.019 16.625 24.0726C15.4464 25.0369 13.8929 25.5726 12.2321 25.5726C11.9643 25.5726 11.6429 25.5726 11.375 25.519C12.9821 26.4833 14.8571 27.0726 16.8393 27.0726C23.3214 27.0726 26.8571 21.7155 26.8571 17.0548C26.8571 16.894 26.8571 16.7333 26.8571 16.6262C27.5 16.0905 28.0893 15.5012 28.5714 14.8048Z" fill="#00D9FD"/>
</g>
<defs>
<clipPath id="clip0_25_783">
<rect width="17.1429" height="17.1429" fill="white" transform="translate(11.4277 11.5366)"/>
</clipPath>
</defs>
</svg>
